<?xml version="1.0" encoding="UTF-8"?>
<COLLADA xmlns="http://www.collada.org/2005/11/COLLADASchema" version="1.4.1">
<!--
# File generated by ImageToStl.com - Free Image and 3D model conversion tools
-->
  <asset>
    <contributor>
      <author>ImageToStl.com</author>
      <authoring_tool>ImageToStl.com</authoring_tool>
    </contributor>
    <created>2025-11-18T08:54:08</created>
    <modified>2025-11-18T08:54:08</modified>
    <up_axis>Y_UP</up_axis>
  </asset>
  <library_images>
    <image id="fire3lambert1_baseColor_png" name="fire3lambert1_baseColor_png">
      <init_from>textures/fire3lambert1_baseColor.png</init_from>
    </image>
  </library_images>
  <library_effects>
    <effect id="effect_0">
        <profile_COMMON>
          <newparam sid="fire3lambert1_baseColor_png-surface">
            <surface type="2D">
              <init_from>fire3lambert1_baseColor_png</init_from>
            </surface>
          </newparam>
          <newparam sid="fire3lambert1_baseColor_png-sampler">
            <sampler2D>
              <source>fire3lambert1_baseColor_png-surface</source>
            </sampler2D>
          </newparam>
          <technique sid="common">
            <phong>
              <diffuse>
                <color>1 1 1 1</color>
                <texture texture="fire3lambert1_baseColor_png-sampler" texcoord="UVMap"/>
              </diffuse>
              <specular>
                <color>0.04 0.04 0.04 1</color>
              </specular>
              <shininess>
                <float>0</float>
              </shininess>
            </phong>
          </technique>
        </profile_COMMON>
    </effect>
  </library_effects>
  <library_materials>
    <material id="mat_0">
      <instance_effect url="#effect_0"/>
    </material>
  </library_materials>
  <library_geometries>
    <geometry id="geometry_3e6fa17a_b312_4e39_99fc_b533cb39f25c">
      <mesh>
        <source id="pos_0">
          <float_array id="pos_0-array" count="1248">-0.30193996 0.82490528 0.23396397 -0.29466343 0.8163563 0.23630047 -0.29788113 0.79187095 0.23229837 -0.30806923 0.79829633 0.2334795 -0.31588459 0.78877771 0.23961306 -0.31066227 0.80086291 0.24294281 -0.30226517 0.79708588 0.24696255 0.53759766 0.41107309 -0.25154066 0.5287447 0.39840877 -0.255229 0.53482723 0.39347327 -0.25413847 0.53830624 0.39741039 -0.25690508 0.53034687 0.39385033 -0.26687956 0.53308392 0.40890431 -0.25695896 -0.32898426 0.74088156 0.24789047 -0.325243 0.74447 0.25486994 -0.32154751 0.74164283 0.24031544 0.52097511 0.3950218 -0.264884 0.51967144 0.35920346 -0.27144957 0.52511978 0.35724461 -0.27968216 0.50448036 0.35967708 -0.2773366 -0.28822136 0.64740789 0.24521542 -0.29364109 0.58674872 0.2013855 -0.33388805 0.58466375 0.22302485 -0.31877899 0.66074479 0.24746275 -0.24248695 0.59522569 0.21367311 -0.23296356 0.58827007 0.14428186 -0.28923225 0.66029823 0.26329613 -0.26749229 0.5887922 0.25514317 -0.1369772 0.61028945 0.03876877 -0.17356491 0.56420791 0.1465683 -0.18537998 0.6274122 -0.04964876 -0.25351524 0.56597507 0.03415823 -0.08253288 0.7291311 0.00081253 -0.13580227 0.7338773 -0.05254984 0.03347683 0.62197244 0.07533407 0.03295803 0.74954188 0.03061867 -0.06960106 0.53762722 0.12164021 -0.29107285 0.77673781 0.2348485 -0.29334164 0.72866523 0.24014997 -0.30742073 0.73653615 0.23720121 -0.29035568 0.7874459 0.2408576 -0.2921257 0.73424494 0.2494278 -0.29595947 0.78299749 0.24849796 -0.31424999 0.74287736 0.25942183 -0.30151272 0.73708236 0.25813961 -0.09475136 1.26751983 -0.32184029 -0.10134506 1.2805146 -0.32676506 -0.07037449 1.23229396 -0.32543755 -0.07098579 1.23117912 -0.31497431 -0.07458591 1.24258626 -0.30051184 -0.10302258 1.28838599 -0.31031609 -0.11929893 1.3217119 -0.31290674 -0.53060246 -0.29934955 -0.00969505 -0.52347374 -0.31490278 0.07127285 -0.5395546 -0.22176349 0.07177591 -0.54314899 -0.22977161 -0.0366044 -0.5095644 -0.34431005 -0.05376101 -0.48713779 -0.3981992 0.04749727 -0.52321339 -0.26115835 -0.12309313 -0.07415581 1.30051506 -0.29806232 -0.04746056 1.25710762 -0.29495335 -0.04920483 1.25184524 -0.30904245 -0.08131218 1.3072511 -0.30630159 -0.08004093 1.3212899 -0.2873044 -0.05220509 1.26948082 -0.28084946 -0.09340096 1.34892285 -0.2927475 0.25942326 0.15975225 -0.34665394 0.30704212 0.21020031 -0.30375624 0.34463692 0.09610295 -0.31997681 0.29107285 0.00617731 -0.35646963 0.19427681 0.29002202 -0.36606073 0.29052639 0.34742272 -0.27051544 0.16961288 0.08466256 -0.40829086 0.31929207 0.2583344 0.14274979 0.26383495 0.41063952 0.10923386 0.17178059 0.40641332 0.19767618 0.19868469 0.2753104 0.26692963 0.30063534 0.11349249 0.2774415 0.41775036 0.06241131 0.17317533 0.42975807 0.15971589 0.04155111 0.18316555 0.13600302 0.36907959 0.01698208 0.47986841 0.1796751 0.11955738 0.52025521 0.13894224 0.2196188 0.53900898 0.07845163 0.1769495 0.65755379 0.04736662 0.15607548 0.77729952 0.02478218 0.40119743 0.14694977 -0.34189606 0.45439911 0.12009919 -0.34828138 0.50692272 0.02519703 -0.29077578 0.41810703 0.04081321 -0.32144785 0.41381454 0.22151744 -0.36439466 0.43648052 0.20660675 -0.37669897 0.3664732 0.17450345 -0.30129194 0.42198753 0.18793917 -0.29286718 0.43315601 0.23677707 -0.33014202 0.4044466 0.21687496 -0.21020794 -0.19795036 0.59876716 -0.17065859 -0.13387489 0.74101102 -0.15161753 -0.06811905 0.76356232 -0.21909142 -0.08304119 0.63790476 -0.25773764 -0.27408123 0.52081108 -0.10402822 0.47978687 0.16655731 -0.20461941 0.51107311 0.09514618 -0.06565952 0.56643772 0.05258238 -0.1532464 0.52490044 0.1348412 -0.25455427 0.42757225 0.21070647 -0.09798622 0.49360371 0.21715844 -0.32088041 0.47041893 0.22841215 -0.30367708 0.04456806 -0.23787665 0.58553362 0.10424137 -0.27848065 0.54367399 0.13768196 -0.17054033 0.52450991 0.03725815 -0.13757992 0.5683074 -0.03645325 -0.25652266 0.60240459 0.01565838 -0.34275687 0.55171919 -0.06600761 -0.12316585 0.60549927 -0.25150394 -0.50995153 -0.27893257 -0.32426262 -0.48530012 -0.23672247 -0.32223225 -0.42011595 -0.34253836 -0.20341396 -0.46337783 -0.36475611 -0.08711815 -0.49886346 -0.35043049 -0.19600296 -0.55153149 -0.24427128 -0.28363037 -0.54487157 -0.15580082 0.14336109 -0.61667871 0.00285912 0.10849953 -0.61401439 0.10848427 -0.02022266 -0.63028938 0.05943871 0.07255936 -0.62495625 -0.06086588 -0.01576805 -0.61840075 -0.13365507 0.14313507 -0.55415529 -0.23868036 0.22508812 -0.56685066 -0.14257526 0.28041553 -0.56152868 -0.03202772 -0.13899994 -0.61967474 -0.00464058 -0.09056187 -0.59721941 0.19633865 -0.20881653 -0.58889508 0.12171268 -0.30144596 -0.55989718 0.02968931 -0.21861458 -0.59146589 -0.07562876 -0.10712624 -0.59290266 -0.19809914 0.0359869 -0.52805907 -0.30736399 0.02622032 -0.38323176 -0.39261866 0.16766834 -0.39809573 -0.34471178 0.29199886 -0.43195128 -0.28354263 0.28611279 -0.25817645 -0.35408926 0.40568161 -0.29605162 -0.28475523 0.47805977 -0.30947149 -0.19880867 0.38252163 -0.45295572 -0.18595982 0.51646996 -0.30190241 -0.09017038 0.43515491 -0.44369066 -0.06109476 0.50533581 -0.27930951 0.06795549 0.42584896 -0.430861 0.10226345 0.27201366 -0.55632359 0.11623669 0.37988758 -0.40204918 0.26702833 0.23972416 -0.51888382 0.26748466 0.06768513 -0.57952791 0.24855661 0.16388226 -0.46931624 0.39173031 0.0041275 -0.52096945 0.36447048 -0.15322781 -0.5293119 0.31561613 -0.06360245 -0.44463384 0.45727301 -0.21461201 -0.4408499 0.40368557 -0.3451004 -0.4350208 0.30930185 -0.28049278 -0.52158308 0.23399639 -0.44285297 -0.41842258 0.17657995 -0.38009834 -0.4977138 0.1208005 -0.43479919 -0.4649837 -0.00115013 -0.36643887 -0.51405859 -0.07000208 -0.46457863 -0.40089464 -0.11364603 -0.40294647 -0.44640732 -0.17553282 -0.47708893 -0.30947101 -0.21093893 -0.41241932 -0.36496365 -0.28371763 -0.46339512 -0.21800113 -0.28446531 -0.3729887 -0.28355777 -0.3654542 -0.25405598 -0.33682692 -0.41323423 -0.32860661 -0.16177499 -0.38905096 -0.20102596 -0.21078587 -0.42477608 -0.04685402 -0.24364781 -0.41857862 -0.11724567 -0.36701441 -0.42126036 0.11958218 -0.24456561 -0.39820004 0.00480843 -0.08522081 -0.41503239 0.15093708 -0.08804679 -0.41002369 0.28436089 -0.13516366 -0.35468006 0.41070652 -0.06964505 -0.31648016 0.39260864 -0.18029845 -0.30159712 0.51396656 -0.08304298 -0.25953341 0.4957056 -0.1957159 -0.21888876 0.56869602 -0.06765544 -0.18487453 0.54029751 -0.18296719 -0.12968493 0.57141495 -0.04057813 -0.07173967 0.54615211 -0.14342642 0.00501728 0.51212692 0.00768626 0.05332804 0.49043751 -0.09613407 0.17039442 0.45975399 -0.25357795 0.23750782 0.38628006 -0.05652213 0.299757 0.37436962 -0.22152674 0.37256002 0.293993 -0.36895168 0.39857435 0.25979137 -0.19076848 0.46388054 0.19373226 -0.32098961 0.48586512 0.08455372 -0.40909815 0.48348141 -0.11558723 -0.35708368 0.51646805 -0.14783096 -0.25258315 0.5658884 -0.28173065 -0.25681686 0.4734602 -0.25737476 -0.3524245 0.45401621 -0.40929985 -0.25394404 0.35209227 -0.39080334 -0.34782171 0.34460878 -0.50034332 -0.23687243 0.19922304 -0.48547459 -0.33007002 0.19927359 -0.40671635 -0.15442681 0.33837843 -0.49334049 -0.1336596 0.18143559 -0.5334816 -0.11508107 0.04670906 -0.45236683 -0.02490342 0.13715839 -0.48553181 -0.01506937 0.00551224 -0.49803448 -0.02585649 -0.1098485 -0.5401926 -0.12822759 -0.07279396 -0.48287201 -0.05574107 -0.21603537 -0.52307987 -0.16125679 -0.18005896 -0.4282093 -0.10691559 -0.31460285 -0.43115425 0.0638845 -0.22171783 -0.37691784 0.03418159 -0.30959845 -0.28202724 -0.00722837 -0.38349819 -0.33095837 0.18098164 -0.28804111 -0.24149513 0.16610539 -0.35725403 -0.09287548 0.12933123 -0.40285301 -0.15145206 -0.05745924 -0.40778303 0.04686642 0.1132164 -0.42640543 -0.05815601 0.34603035 -0.42105627 0.06439495 0.33119512 -0.42197466 -0.06393909 0.51267171 -0.3415761 0.06493664 0.51516294 -0.36566544 0.18484116 0.50980425 -0.32904243 0.0395689 0.65414989 -0.30092144 0.15265465 0.65797293 -0.29046488 0.23252201 0.6546787 -0.2329731 0.26171017 0.51300144 -0.25110626 0.27645016 0.6552006 -0.15756178 0.30360603 0.5263139 -0.16935253 0.32922173 0.38883698 -0.19292831 0.31436348 0.53976083 -0.08485746 0.34029865 0.41352844 -0.10317802 0.37219715 0.29870868 -0.14225245 0.35777378 0.26310122 -0.23639917 0.32175446 0.42076802 -6.2E-06 0.36778641 0.30007064 -0.0208559 0.28574562 0.54473889 -0.00056839 0.28585815 0.66090834 -0.08066463 0.25537872 0.66483247 -0.0092802 0.2508955 0.77062118 -0.08362389 0.22447014 0.77562153 -0.02156925 0.19144821 0.87455833 -0.09337854 0.16629696 0.87663448 -0.04139185 0.09971905 0.87664974 -0.01120472 0.11172009 0.97538483 -0.09532356 0.06625557 0.97877634 -0.07242823 0.01056576 0.97900522 -0.0711751 0.01402283 0.86740816 -0.01085758 -0.03656292 0.97909057 -0.09187317 -0.06104469 0.8617686 -0.03966331 -0.05965996 0.98021972 -0.12899733 -0.09638119 0.86661494 -0.08939695 -0.05620861 0.9816829 -0.17168522 -0.08876514 0.87307513 -0.15112638 -0.02961922 0.98146808 -0.20742369 -0.04639912 0.88080966 -0.1996026 0.0108633 0.97975218 -0.22727251 0.01451778 0.88405097 -0.22469997 0.02211475 0.77401984 -0.25074339 0.07956028 0.88324225 -0.22330809 0.11212444 0.77623069 -0.24765682 0.13781834 0.87946665 -0.19660044 0.19030285 0.77364838 -0.21229601 0.17852116 0.87569559 -0.14975452 0.24143505 0.76949656 -0.15165043 0.09759521 0.97222817 -0.20903873 0.12583923 0.97021616 -0.17485237 0.13247967 0.97151959 -0.13315487 0.08381271 1.04972327 -0.21833658 0.08796883 1.05299246 -0.18858051 0.07465649 1.05898035 -0.16067314 0.04305458 1.12601817 -0.23988008 0.03415489 1.13327038 -0.21876526 0.01691628 1.13889205 -0.20521164 0.04613304 1.06455576 -0.14289808 -0.00323868 1.13993251 -0.20363092 0.01159763 1.06728208 -0.14074993 -0.02015305 1.13712084 -0.21392536 -0.01805305 1.06729448 -0.15477896 -0.02948761 1.13268888 -0.23251724 -0.03418732 1.06608379 -0.18038321 -0.02974033 1.12831247 -0.25423908 -0.03399563 1.06411827 -0.21028805 -0.02152348 1.12474549 -0.27361822 -0.01893234 1.06131923 -0.23636675 -0.0065279 1.12168014 -0.28600311 0.00665283 1.05751288 -0.25224304 0.01199341 1.11932695 -0.28826332 0.03684425 1.05326617 -0.25433445 0.05629444 0.97611439 -0.22778225 0.06485844 1.05009949 -0.24213934 0.02950382 1.11860597 -0.2796793 0.0411005 1.12071407 -0.26214361 -0.01160145 1.18369925 -0.30896902 -0.00481415 1.18798101 -0.29457617 -0.00418568 1.19480312 -0.27676153 -0.01056385 1.20390618 -0.25975752 -0.05945301 1.27755654 -0.27177477 -0.02141285 1.20971763 -0.24909353 -0.06859684 1.27318752 -0.27351999 -0.03341293 1.20768583 -0.249084 -0.07469559 1.25897682 -0.28489733 -0.04223728 1.19963372 -0.2589283 -0.04567146 1.19009888 -0.27468061 -0.04436302 1.18288314 -0.29184675 -0.04008389 1.18023765 -0.30652523 -0.06803608 1.23769629 -0.33101559 -0.03233337 1.18015015 -0.31562519 -0.06238937 1.24357378 -0.329638 -0.02196312 1.18139017 -0.3165803 -0.05496788 1.24788558 -0.32156372 -0.09896088 1.3053838 -0.3251133 -0.09001064 1.30892503 -0.31660748 -0.11709499 1.35943663 -0.30884314 -0.10482025 1.36000383 -0.30089426 -0.11425495 1.39099848 -0.29346657 -0.10246658 1.39209855 -0.28591394 -0.09476376 1.37463129 -0.28039265 -0.10538197 1.39699376 -0.28182697 -0.10362816 1.37626302 -0.28003931 -0.09443092 1.3326627 -0.28007889 -0.08464241 1.33604681 -0.27797031 -0.11790371 1.35598028 -0.29360151 -0.10355854 1.31341612 -0.29336548 -0.11912537 1.38338959 -0.29303741 -0.12341976 1.34613049 -0.31264925 -0.10352707 1.29473674 -0.32871246 -0.20055294 0.49583101 -0.26817942 -0.17495155 0.36794341 -0.36049175 -0.29506874 0.32749236 -0.26192284 -0.29010677 0.44121337 -0.19968653 -0.34731197 0.39912355 -0.11868858 -0.32811642 0.47227716 -0.0039916 -0.36313534 0.30584192 -0.18694258 -0.39059162 0.28652489 -0.10372639 -0.37650681 0.36764693 -0.02279425 -0.38902378 0.18763626 -0.21071672 -0.40943432 0.18849099 -0.12903976 -0.3912487 0.18157065 -0.03416634 -0.38088703 0.26696777 -0.00845909 -0.44770908 0.08149076 -0.12722731 -0.42965126 0.08645797 -0.02195501 -0.37765026 0.08075786 0.10143995 -0.32974148 0.17037404 0.07289171 -0.2033968 0.16638696 0.15553379 -0.25223637 0.25227141 0.14434958 -0.33616161 0.25237143 0.08318949 -0.28821945 0.07931101 0.23791504 -0.19072819 0.09843695 0.34991646 -0.1287384 0.20248926 0.24873924 -0.373909 -0.04527962 0.29848957 -0.26960754 -0.03879178 0.43386364 -0.17302704 -0.02507591 0.50781918 -0.11040115 0.11976469 0.41015244 -0.28804302 -0.15746224 0.47433662 -0.17674351 -0.14340186 0.56736755 -0.08095169 -0.01579714 0.53281021 0.01416874 -0.01610422 0.51574278 0.07456684 0.14225125 0.42578077 -0.02165318 0.13480771 0.43700933 0.09708405 0.27603006 0.33016157 0.00652122 0.26160824 0.34263277 -0.07036209 0.23588336 0.31030607 -0.01879501 0.36206281 0.2568078 -0.0993576 0.32428312 0.22875881 -0.1502161 0.28619182 0.18082762 -0.19450855 0.37788188 0.22560692 -0.249547 0.34165418 0.21824408 -0.30643082 0.32666326 0.1953454 -0.29200172 0.4146204 0.26558733 -0.33449173 0.40591764 0.24842119 -0.36326981 0.40902328 0.2095356 -0.35309029 0.32924247 0.14694023 -0.37323952 0.42123353 0.15297365 -0.3775177 0.34408915 0.07091236 -0.36170483 0.44135809 0.08281136 -0.37003422 0.50003791 0.19244576 -0.35035992 0.51291513 0.15324545 -0.31072044 0.53233063 0.10722923 -0.35704708 0.58115089 0.23849773 -0.36336422 0.57721293 0.25588179 -0.34685326 0.66485178 0.26327085 -0.33889103 0.66493928 0.25347996 -0.36982441 0.4913789 0.2312007 -0.35177898 0.48802555 0.26334953 -0.35359573 0.57508695 0.27281094 -0.33080482 0.57603681 0.28221321 -0.3260088 0.66461337 0.27879572 -0.34154415 0.66517508 0.2732935 -0.31953144 0.49198663 0.27885389 -0.27662659 0.50487304 0.26969242 -0.29990959 0.58086121 0.2775507 -0.23927784 0.43647182 0.25748014 -0.16697979 0.47164965 0.20682144 -0.22563648 0.52786231 0.22746706 -0.08776665 0.43416595 0.19284058 0.07499027 0.39011526 0.24862814 -0.30592155 0.66311681 0.27571011 0.14101315 -0.01612413 0.46549702 0.26702309 -0.0284704 0.39190197 0.57034874 0.03496361 -0.22823286 0.50834465 0.12088704 -0.31358337 0.47465515 0.20711744 -0.35800362 0.45698261 0.28682339 -0.35490227 0.48355389 0.2878778 -0.34237623 0.50108051 0.29465091 -0.31572151 0.51246357 0.35241604 -0.29688501 0.49000549 0.30001116 -0.30307293 0.46506023 0.30142665 -0.3153801 0.49220753 0.35507512 -0.29388666 0.44756603 0.29429889 -0.34157133 0.49525547 0.34997761 -0.30502987 0.51838398 0.38644862 -0.27507782</float_array>
          <technique_common>
            <accessor source="#pos_0-array" count="1248" stride="3">
              <param name="X" type="float"/>
              <param name="Y" type="float"/>
              <param name="Z" type="float"/>
            </accessor>
          </technique_common>
        </source>
        <source id="norm_0">
          <float_array id="norm_0-array" count="4326">0.12111 0.06482 -0.99052 0.12111 0.06482 -0.99052 0.12111 0.06482 -0.99052 0.12111 0.06482 -0.99052 -0.8979 0.29557 -0.3262 -0.8979 0.29557 -0.3262 -0.8979 0.29557 -0.3262 -0.8979 0.29557 -0.3262 -0.03416 0.4234 0.9053 -0.03416 0.4234 0.9053 0.15318 -0.16785 0.97384 0.15318 -0.16785 0.97384 0.15318 -0.16785 0.97384 0.68069 0.30616 -0.66553 0.68069 0.30616 -0.66553 0.68069 0.30616 -0.66553 -0.89735 0.30075 0.32298 -0.89735 0.30075 0.32298 -0.89735 0.30075 0.32298 -0.69334 0.07262 -0.71695 -0.69334 0.07262 -0.71695 -0.77691 0.40118 0.48524 -0.77691 0.40118 0.48524 -0.77691 0.40118 0.48524 -0.77691 0.40118 0.48524 0.70446 -0.52529 0.47729 0.70446 -0.52529 0.47729 0.70446 -0.52529 0.47729 0.70446 -0.52529 0.47729 -0.36315 -0.28321 0.88765 -0.36315 -0.28321 0.88765 -0.36315 -0.28321 0.88765 -0.36315 -0.28321 0.88765 -0.21674 0.46191 -0.86004 -0.21674 0.46191 -0.86004 -0.21674 0.46191 -0.86004 -0.01894 0.8581 -0.51314 -0.01894 0.8581 -0.51314 -0.01894 0.8581 -0.51314 0.86728 0.36419 0.3394 0.86728 0.36419 0.3394 0.86728 0.36419 0.3394 0.35002 0.8914 0.28792 0.35002 0.8914 0.28792 0.35002 0.8914 0.28792 -0.3571 0.92872 0.09983 -0.3571 0.92872 0.09983 -0.3571 0.92872 0.09983 -0.70215 0.42744 0.56945 -0.70215 0.42744 0.56945 -0.70215 0.42744 0.56945 -0.24903 0.3566 0.90045 -0.24903 0.3566 0.90045 -0.24903 0.3566 0.90045 0.01342 0.75722 0.65303 0.01342 0.75722 0.65303 0.01342 0.75722 0.65303 0.01342 0.75722 0.65303 0.13517 -0.11258 -0.98441 0.13517 -0.11258 -0.98441 0.99609 -0.04972 -0.07298 0.99609 -0.04972 -0.07298 0.99609 -0.04972 -0.07298 0.99609 -0.04972 -0.07298 0.77109 0.09297 -0.6299 0.77109 0.09297 -0.6299 0.77109 0.09297 -0.6299 0.77109 0.09297 -0.6299 0.17756 0.18237 0.96707 0.17756 0.18237 0.96707 0.17756 0.18237 0.96707 0.73182 0.07048 0.67784 0.73182 0.07048 0.67784 0.59654 0.25507 0.76097 0.59654 0.25507 0.76097 0.59654 0.25507 0.76097 0.59654 0.25507 0.76097 -0.817 -0.54663 -0.1836 -0.817 -0.54663 -0.1836 -0.817 -0.54663 -0.1836 -0.817 -0.54663 -0.1836 -0.84251 -0.49003 0.2237 -0.84251 -0.49003 0.2237 -0.84251 -0.49003 0.2237 -0.89812 -0.42527 0.11191 -0.89812 -0.42527 0.11191 -0.89812 -0.42527 0.11191 -0.89812 -0.42527 0.11191 -0.98501 -0.16531 0.0492 -0.98501 -0.16531 0.0492 -0.98501 -0.16531 0.0492 -0.91405 -0.40556 -0.0063 -0.91405 -0.40556 -0.0063 -0.91405 -0.40556 -0.0063 -0.91405 -0.40556 -0.0063 -0.95469 -0.25762 -0.14897 -0.95469 -0.25762 -0.14897 -0.95469 -0.25762 -0.14897 0.82151 0.48777 -0.29529 0.82151 0.48777 -0.29529 0.82151 0.48777 -0.29529 0.82151 0.48777 -0.29529 0.85045 0.46175 -0.25203 0.85045 0.46175 -0.25203 0.85045 0.46175 -0.25203 0.85045 0.46175 -0.25203 0.86121 0.3795 -0.33808 0.86121 0.3795 -0.33808 0.86121 0.3795 -0.33808 0.42301 0.19549 -0.88478 0.42301 0.19549 -0.88478 0.42301 0.19549 -0.88478 0.42301 0.19549 -0.88478 0.58616 0.21928 -0.77996 0.58616 0.21928 -0.77996 0.58616 0.21928 -0.77996 0.58616 0.21928 -0.77996 0.48151 0.13494 -0.86599 0.48151 0.13494 -0.86599 0.48151 0.13494 -0.86599 0.65456 0.41852 0.62959 0.65456 0.41852 0.62959 0.65456 0.41852 0.62959 0.65456 0.41852 0.62959 0.7431 0.45031 0.495 0.7431 0.45031 0.495 0.7431 0.45031 0.495 0.7431 0.45031 0.495 0.64098 0.44449 0.62576 0.64098 0.44449 0.62576 0.64098 0.44449 0.62576 0.64098 0.44449 0.62576 -0.01914 0.59318 0.80484 -0.01914 0.59318 0.80484 -0.01914 0.59318 0.80484 -0.01914 0.59318 0.80484 0.20139 0.48386 0.85166 0.20139 0.48386 0.85166 0.20139 0.48386 0.85166 0.20139 0.48386 0.85166 0.05858 0.26684 0.96196 0.05858 0.26684 0.96196 0.05858 0.26684 0.96196 0.05756 -0.34359 -0.93736 0.05756 -0.34359 -0.93736 0.05756 -0.34359 -0.93736 -0.37659 -0.29046 -0.87967 -0.37659 -0.29046 -0.87967 -0.37659 -0.29046 -0.87967 -0.36194 0.00076 -0.9322 -0.36194 0.00076 -0.9322 -0.36194 0.00076 -0.9322 -0.36194 0.00076 -0.9322 -0.92319 0.29644 0.24465 -0.92319 0.29644 0.24465 -0.92319 0.29644 0.24465 -0.92319 0.29644 0.24465 -0.14191 0.87572 -0.4615 -0.14191 0.87572 -0.4615 -0.14191 0.87572 -0.4615 -0.14191 0.87572 -0.4615 -0.67567 0.34008 -0.65408 -0.67567 0.34008 -0.65408 -0.67567 0.34008 -0.65408 -0.74099 0.66482 -0.09458 -0.74099 0.66482 -0.09458 -0.74099 0.66482 -0.09458 -0.90961 0.41545 0.00338 -0.90961 0.41545 0.00338 -0.90961 0.41545 0.00338 -0.90961 0.41545 0.00338 0.7384 0.64703 0.19002 0.7384 0.64703 0.19002 0.7384 0.64703 0.19002 0.77435 0.60828 0.17428 0.77435 0.60828 0.17428 0.77435 0.60828 0.17428 0.77435 0.60828 0.17428 0.55763 0.82249 -0.11207 0.55763 0.82249 -0.11207 0.55763 0.82249 -0.11207 0.55763 0.82249 -0.11207 0.71964 0.6013 0.34723 0.71964 0.6013 0.34723 0.71964 0.6013 0.34723 -0.45555 0.69403 0.55749 -0.45555 0.69403 0.55749 -0.45555 0.69403 0.55749 -0.45555 0.69403 0.55749 0.50094 0.08761 0.86104 0.50094 0.08761 0.86104 0.50094 0.08761 0.86104 0.30872 -0.36789 0.87712 0.30872 -0.36789 0.87712 0.27789 0.10162 0.95522 0.27789 0.10162 0.95522 0.27789 0.10162 0.95522 0.27789 0.10162 0.95522 -0.43642 -0.72289 -0.5357 -0.43642 -0.72289 -0.5357 -0.43642 -0.72289 -0.5357 -0.19473 -0.79727 -0.57135 -0.19473 -0.79727 -0.57135 -0.19473 -0.79727 -0.57135 -0.19473 -0.79727 -0.57135 -0.44598 -0.82378 -0.34998 -0.44598 -0.82378 -0.34998 -0.44598 -0.82378 -0.34998 -0.44598 -0.82378 -0.34998 0.09777 -0.99426 0.04349 0.09777 -0.99426 0.04349 0.09777 -0.99426 0.04349 0.09777 -0.99426 0.04349 0.18927 -0.93578 -0.29748 0.18927 -0.93578 -0.29748 0.18927 -0.93578 -0.29748 0.30748 -0.93979 -0.1492 0.30748 -0.93979 -0.1492 0.30748 -0.93979 -0.1492 -0.04147 -0.99719 -0.06235 -0.04147 -0.99719 -0.06235 -0.04147 -0.99719 -0.06235 -0.04147 -0.99719 -0.06235 -0.16491 -0.97504 0.14869 -0.16491 -0.97504 0.14869 -0.16491 -0.97504 0.14869 -0.33977 -0.94006 0.02912 -0.33977 -0.94006 0.02912 -0.33977 -0.94006 0.02912 -0.33977 -0.94006 0.02912 -0.17562 -0.97082 -0.16328 -0.17562 -0.97082 -0.16328 -0.17562 -0.97082 -0.16328 -0.05853 -0.846 -0.52995 -0.05853 -0.846 -0.52995 -0.05853 -0.846 -0.52995 -0.05853 -0.846 -0.52995 0.06616 -0.89318 -0.44481 0.06616 -0.89318 -0.44481 0.06616 -0.89318 -0.44481 0.06616 -0.89318 -0.44481 -0.31081 -0.91471 -0.25828 -0.31081 -0.91471 -0.25828 -0.31081 -0.91471 -0.25828 0.21097 -0.48527 -0.84853 0.21097 -0.48527 -0.84853 0.21097 -0.48527 -0.84853 0.21097 -0.48527 -0.84853 0.28534 -0.56891 -0.77131 0.28534 -0.56891 -0.77131 0.3641 -0.33972 -0.86719 0.3641 -0.33972 -0.86719 0.3641 -0.33972 -0.86719 0.60646 -0.48584 -0.62942 0.60646 -0.48584 -0.62942 0.60646 -0.48584 -0.62942 0.42776 -0.74581 -0.51067 0.42776 -0.74581 -0.51067 0.42776 -0.74581 -0.51067 0.79916 -0.53556 -0.27298 0.79916 -0.53556 -0.27298 0.79916 -0.53556 -0.27298 0.79916 -0.53556 -0.27298 0.55271 -0.80817 -0.2034 0.55271 -0.80817 -0.2034 0.55271 -0.80817 -0.2034 0.55271 -0.80817 -0.2034 0.88142 -0.46011 0.10674 0.88142 -0.46011 0.10674 0.88142 -0.46011 0.10674 0.88142 -0.46011 0.10674 0.62404 -0.77724 0.08044 0.62404 -0.77724 0.08044 0.6146 -0.7276 0.30473 0.6146 -0.7276 0.30473 0.6146 -0.7276 0.30473 0.6146 -0.7276 0.30473 0.29625 -0.90732 0.29835 0.29625 -0.90732 0.29835 0.29625 -0.90732 0.29835 0.29625 -0.90732 0.29835 0.35714 -0.92974 0.08968 0.35714 -0.92974 0.08968 0.35714 -0.92974 0.08968 0.35714 -0.92974 0.08968 0.21389 -0.83826 0.50156 0.21389 -0.83826 0.50156 0.21389 -0.83826 0.50156 -0.06841 -0.89353 0.44375 -0.06841 -0.89353 0.44375 -0.06841 -0.89353 0.44375 -0.06841 -0.89353 0.44375 0.0274 -0.96857 0.24724 0.0274 -0.96857 0.24724 0.0274 -0.96857 0.24724 -0.18345 -0.78831 0.58729 -0.18345 -0.78831 0.58729 -0.18345 -0.78831 0.58729 -0.39168 -0.76256 0.51487 -0.39168 -0.76256 0.51487 -0.39168 -0.76256 0.51487 -0.28423 -0.89056 0.35514 -0.28423 -0.89056 0.35514 -0.28423 -0.89056 0.35514 -0.58745 -0.72893 0.3515 -0.58745 -0.72893 0.3515 -0.58745 -0.72893 0.3515 -0.4604 -0.86276 0.20901 -0.4604 -0.86276 0.20901 -0.4604 -0.86276 0.20901 -0.4604 -0.86276 0.20901 -0.72482 -0.67379 0.14367 -0.72482 -0.67379 0.14367 -0.72482 -0.67379 0.14367 -0.58389 -0.81136 0.0277 -0.58389 -0.81136 0.0277 -0.7004 -0.68489 -0.20089 -0.7004 -0.68489 -0.20089 -0.7004 -0.68489 -0.20089 -0.58331 -0.76278 -0.27914 -0.58331 -0.76278 -0.27914 -0.58331 -0.76278 -0.27914 -0.58331 -0.76278 -0.27914 -0.46423 -0.87812 -0.11572 -0.46423 -0.87812 -0.11572 -0.46423 -0.87812 -0.11572 -0.78338 -0.51437 -0.34892 -0.78338 -0.51437 -0.34892 -0.78338 -0.51437 -0.34892 -0.78338 -0.51437 -0.34892 -0.64949 -0.6376 -0.41428 -0.64949 -0.6376 -0.41428 -0.64949 -0.6376 -0.41428 -0.64949 -0.6376 -0.41428 -0.77627 -0.27215 -0.56863 -0.77627 -0.27215 -0.56863 -0.77627 -0.27215 -0.56863 -0.56003 -0.33529 -0.7576 -0.56003 -0.33529 -0.7576 -0.56003 -0.33529 -0.7576 -0.32344 -0.00703 -0.94622 -0.32344 -0.00703 -0.94622 -0.32344 -0.00703 -0.94622 -0.01262 -0.02926 -0.99949 -0.01262 -0.02926 -0.99949 -0.01262 -0.02926 -0.99949 -0.01262 -0.02926 -0.99949 -0.22605 -0.42604 -0.87601 -0.22605 -0.42604 -0.87601 -0.22605 -0.42604 -0.87601 -0.22605 -0.42604 -0.87601 0.14975 -0.10446 -0.98319 0.14975 -0.10446 -0.98319 0.14975 -0.10446 -0.98319 0.14975 -0.10446 -0.98319 0.05421 -0.4629 -0.88475 0.05421 -0.4629 -0.88475 0.05421 -0.4629 -0.88475 0.05421 -0.4629 -0.88475 0.0803 -0.04733 -0.99565 0.0803 -0.04733 -0.99565 0.0803 -0.04733 -0.99565 0.0803 -0.04733 -0.99565 0.30032 -0.07404 -0.95096 0.30032 -0.07404 -0.95096 0.30032 -0.07404 -0.95096 0.25663 -0.24532 -0.93486 0.25663 -0.24532 -0.93486 0.25663 -0.24532 -0.93486 0.37461 -0.03045 -0.92668 0.37461 -0.03045 -0.92668 0.37461 -0.03045 -0.92668 0.33284 -0.09484 -0.9382 0.33284 -0.09484 -0.9382 0.33284 -0.09484 -0.9382 0.33284 -0.09484 -0.9382 0.46284 -0.03593 -0.88571 0.46284 -0.03593 -0.88571 0.46284 -0.03593 -0.88571 0.50966 -0.28484 -0.81186 0.50966 -0.28484 -0.81186 0.67586 -0.13017 -0.72545 0.67586 -0.13017 -0.72545 0.67586 -0.13017 -0.72545 0.82556 -0.35377 -0.43965 0.82556 -0.35377 -0.43965 0.82556 -0.35377 -0.43965 0.90155 -0.25096 -0.35246 0.90155 -0.25096 -0.35246 0.97431 -0.22367 0.02642 0.97431 -0.22367 0.02642 0.97431 -0.22367 0.02642 0.97431 -0.22367 0.02642 0.97315 -0.22097 0.06443 0.97315 -0.22097 0.06443 0.97315 -0.22097 0.06443 0.97315 -0.22097 0.06443 0.93596 0.10311 0.33667 0.93596 0.10311 0.33667 0.93596 0.10311 0.33667 0.93596 0.10311 0.33667 0.94697 -0.09469 0.30705 0.94697 -0.09469 0.30705 0.94697 -0.09469 0.30705 0.82223 0.13166 0.55372 0.82223 0.13166 0.55372 0.82223 0.13166 0.55372 0.82223 0.13166 0.55372 0.76453 -0.30773 0.56638 0.76453 -0.30773 0.56638 0.76453 -0.30773 0.56638 0.76453 -0.30773 0.56638 0.86703 -0.39625 0.30206 0.86703 -0.39625 0.30206 0.86703 -0.39625 0.30206 0.59061 -0.17533 0.78768 0.59061 -0.17533 0.78768 0.59061 -0.17533 0.78768 0.40245 -0.5469 0.73412 0.40245 -0.5469 0.73412 0.40245 -0.5469 0.73412 0.40245 -0.5469 0.73412 0.51872 -0.66141 0.54173 0.51872 -0.66141 0.54173 0.51872 -0.66141 0.54173 0.35863 -0.43473 0.82607 0.35863 -0.43473 0.82607 0.35863 -0.43473 0.82607 0.35863 -0.43473 0.82607 -0.04753 -0.65895 0.75068 -0.04753 -0.65895 0.75068 -0.04753 -0.65895 0.75068 0.10307 -0.75856 0.6434 0.10307 -0.75856 0.6434 0.10307 -0.75856 0.6434 0.10307 -0.75856 0.6434 -0.22005 -0.52786 0.82033 -0.22005 -0.52786 0.82033 -0.22005 -0.52786 0.82033 -0.22005 -0.52786 0.82033 -0.44902 -0.40167 0.79815 -0.44902 -0.40167 0.79815 -0.44902 -0.40167 0.79815 -0.44902 -0.40167 0.79815 -0.30545 -0.61625 0.7259 -0.30545 -0.61625 0.7259 -0.30545 -0.61625 0.7259 -0.64559 -0.24862 0.72208 -0.64559 -0.24862 0.72208 -0.64559 -0.24862 0.72208 -0.64559 -0.24862 0.72208 -0.5157 -0.57117 0.63861 -0.5157 -0.57117 0.63861 -0.5157 -0.57117 0.63861 -0.5157 -0.57117 0.63861 -0.84519 -0.17086 0.50641 -0.84519 -0.17086 0.50641 -0.84519 -0.17086 0.50641 -0.84519 -0.17086 0.50641 -0.73313 -0.51544 0.44367 -0.73313 -0.51544 0.44367 -0.73313 -0.51544 0.44367 -0.73313 -0.51544 0.44367 -0.95018 -0.15847 0.26841 -0.95018 -0.15847 0.26841 -0.95018 -0.15847 0.26841 -0.86419 -0.45543 0.2139 -0.86419 -0.45543 0.2139 -0.86419 -0.45543 0.2139 -0.86419 -0.45543 0.2139 -0.85499 0.11887 0.50483 -0.85499 0.11887 0.50483 -0.85499 0.11887 0.50483 -0.85499 0.11887 0.50483 -0.94574 0.12052 0.30174 -0.94574 0.12052 0.30174 -0.94574 0.12052 0.30174 -0.94574 0.12052 0.30174 -0.83635 0.47105 0.28041 -0.83635 0.47105 0.28041 -0.83635 0.47105 0.28041 -0.83635 0.47105 0.28041 -0.90845 0.41679 0.03185 -0.90845 0.41679 0.03185 -0.90845 0.41679 0.03185 -0.99768 0.05503 0.04001 -0.99768 0.05503 0.04001 -0.99768 0.05503 0.04001 -0.99768 0.05503 0.04001 -0.93023 0.2892 -0.2259 -0.93023 0.2892 -0.2259 -0.93023 0.2892 -0.2259 -0.93023 0.2892 -0.2259 -0.98391 -0.06233 -0.16742 -0.98391 -0.06233 -0.16742 -0.98391 -0.06233 -0.16742 -0.98391 -0.06233 -0.16742 -0.83403 0.12638 -0.53705 -0.83403 0.12638 -0.53705 -0.83403 0.12638 -0.53705 -0.90042 -0.19879 -0.38694 -0.90042 -0.19879 -0.38694 -0.90042 -0.19879 -0.38694 -0.90042 -0.19879 -0.38694 -0.76161 0.29941 -0.57472 -0.76161 0.29941 -0.57472 -0.76161 0.29941 -0.57472 -0.76161 0.29941 -0.57472 -0.5278 0.20416 -0.82447 -0.5278 0.20416 -0.82447 -0.5278 0.20416 -0.82447 -0.5278 0.20416 -0.82447 -0.62087 0.0314 -0.78329 -0.62087 0.0314 -0.78329 -0.62087 0.0314 -0.78329 -0.62087 0.0314 -0.78329 -0.53947 0.26508 -0.79919 -0.53947 0.26508 -0.79919 -0.53947 0.26508 -0.79919 -0.53947 0.26508 -0.79919 -0.19952 0.13888 -0.97 -0.19952 0.13888 -0.97 -0.19952 0.13888 -0.97 -0.19952 0.13888 -0.97 -0.17799 0.12705 -0.9758 -0.17799 0.12705 -0.9758 -0.17799 0.12705 -0.9758 -0.17799 0.12705 -0.9758 -0.10203 0.01002 -0.99473 -0.10203 0.01002 -0.99473 0.00889 0.06286 -0.99798 0.00889 0.06286 -0.99798 0.00889 0.06286 -0.99798 -0.09522 -0.02009 -0.99525 -0.09522 -0.02009 -0.99525 -0.09522 -0.02009 -0.99525 -0.09522 -0.02009 -0.99525 0.29942 0.075 -0.95117 0.29942 0.075 -0.95117 0.29942 0.075 -0.95117 0.08108 -0.03914 -0.99594 0.08108 -0.03914 -0.99594 0.08108 -0.03914 -0.99594 -0.07489 0.35917 -0.93026 -0.07489 0.35917 -0.93026 -0.07489 0.35917 -0.93026 -0.07489 0.35917 -0.93026 0.37438 0.21666 -0.90161 0.37438 0.21666 -0.90161 0.37438 0.21666 -0.90161 0.18667 0.36552 -0.91189 0.18667 0.36552 -0.91189 0.18667 0.36552 -0.91189 0.62861 0.27541 -0.72732 0.62861 0.27541 -0.72732 0.62861 0.27541 -0.72732 0.62861 0.27541 -0.72732 0.6665 0.17236 -0.72531 0.6665 0.17236 -0.72531 0.6665 0.17236 -0.72531 0.6665 0.17236 -0.72531 0.84562 0.2294 -0.48197 0.84562 0.2294 -0.48197 0.84562 0.2294 -0.48197 0.84562 0.2294 -0.48197 0.83751 0.22129 -0.4996 0.83751 0.22129 -0.4996 0.83751 0.22129 -0.4996 0.83751 0.22129 -0.4996 0.96219 0.21472 -0.16757 0.96219 0.21472 -0.16757 0.96219 0.21472 -0.16757 0.96219 0.21472 -0.16757 0.92235 0.31062 -0.22975 0.92235 0.31062 -0.22975 0.92235 0.31062 -0.22975 0.92235 0.31062 -0.22975 0.7077 0.30693 -0.63636 0.7077 0.30693 -0.63636 0.7077 0.30693 -0.63636 0.7077 0.30693 -0.63636 0.74597 0.51159 -0.42639 0.74597 0.51159 -0.42639 0.74597 0.51159 -0.42639 0.28301 0.41136 -0.86643 0.28301 0.41136 -0.86643 0.28301 0.41136 -0.86643 0.283 0.41136 -0.86643 0.95218 0.29316 0.0861 0.95218 0.29316 0.0861 0.95218 0.29316 0.0861 0.85788 0.51054 -0.05822 0.85788 0.51054 -0.05822 0.85788 0.51054 -0.05822 0.85788 0.51054 -0.05822 0.85413 0.33594 0.39698 0.85413 0.33594 0.39698 0.82798 0.48823 0.27582 0.82798 0.48823 0.27582 0.82798 0.48823 0.27582 0.94949 0.21913 0.2246 0.94949 0.21913 0.2246 0.94949 0.21913 0.2246 0.94949 0.21913 0.2246 0.78007 0.31514 0.54054 0.78007 0.31514 0.54054 0.78007 0.31514 0.54054 0.78007 0.31514 0.54054 0.91426 0.22937 0.33396 0.91426 0.22937 0.33396 0.91426 0.22937 0.33396 0.63504 0.31219 0.70658 0.63504 0.31219 0.70658 0.63504 0.31219 0.70658 0.63504 0.31219 0.70658 0.8872 0.28986 0.35896 0.8872 0.28986 0.35896 0.8872 0.28986 0.35896 0.55061 0.24442 0.79818 0.55061 0.24442 0.79818 0.55061 0.24442 0.79818 0.55061 0.24442 0.79818 0.79762 0.50529 0.32938 0.79762 0.50529 0.32938 0.79762 0.50529 0.32938 0.44092 0.46575 0.76725 0.44092 0.46575 0.76725 0.44092 0.46575 0.76725 0.44092 0.46575 0.76725 0.36364 0.57811 0.73044 0.36364 0.57811 0.73044 0.36364 0.57811 0.73044 -0.02147 0.49142 0.87066 -0.02147 0.49142 0.87066 -0.02147 0.49142 0.87066 -0.02147 0.49142 0.87066 -0.02988 0.32654 0.94471 -0.02988 0.32654 0.94471 -0.02988 0.32654 0.94471 -0.02988 0.32654 0.94471 -0.3545 0.43851 0.82585 -0.3545 0.43851 0.82585 -0.3545 0.43851 0.82585 -0.3545 0.43852 0.82585 -0.31761 0.29776 0.90026 -0.31761 0.29776 0.90026 -0.31761 0.29776 0.90026 -0.31761 0.29776 0.90026 -0.74444 0.40756 0.52886 -0.74444 0.40756 0.52886 -0.74444 0.40756 0.52886 -0.74444 0.40756 0.52886 -0.69622 0.34346 0.63033 -0.69622 0.34346 0.63033 -0.69622 0.34346 0.63033 -0.69622 0.34346 0.63033 -0.95757 0.27674 -0.08049 -0.95757 0.27674 -0.08049 -0.95757 0.27674 -0.08049 -0.95757 0.27674 -0.08049 -0.95341 0.30006 -0.03122 -0.95341 0.30006 -0.03122 -0.95341 0.30006 -0.03122 -0.77428 0.09775 -0.62525 -0.77428 0.09775 -0.62525 -0.77428 0.09775 -0.62525 -0.73995 0.24844 -0.6251 -0.73995 0.24844 -0.6251 -0.73995 0.24844 -0.6251 -0.40487 -0.02132 -0.91412 -0.40487 -0.02132 -0.91412 -0.40487 -0.02132 -0.91412 -0.36025 0.20472 -0.91011 -0.36025 0.20472 -0.91011 -0.36025 0.20472 -0.91011 -0.36025 0.20472 -0.91011 0.02601 0.23065 -0.97269 0.02601 0.23065 -0.97269 0.02601 0.23065 -0.97269 0.02601 0.23065 -0.97269 0.05064 0.37395 -0.92607 0.05064 0.37395 -0.92607 0.05064 0.37395 -0.92607 0.05064 0.37395 -0.92607 -0.34974 0.31552 -0.88212 -0.34974 0.31552 -0.88212 -0.34974 0.31552 -0.88212 -0.34974 0.31552 -0.88212 0.40436 0.32261 -0.85581 0.40436 0.32261 -0.85581 0.40436 0.32261 -0.85581 0.4792 0.37901 -0.79166 0.4792 0.37901 -0.79166 0.4792 0.37901 -0.79166 0.70207 0.42927 -0.56817 0.70207 0.42927 -0.56817 0.70207 0.42927 -0.56817 0.7807 0.31969 -0.53693 0.7807 0.31969 -0.53693 0.7807 0.31969 -0.53693 0.7807 0.31969 -0.53693 0.85635 0.49288 -0.15406 0.85635 0.49288 -0.15406 0.85635 0.49288 -0.15406 0.94499 0.29701 -0.13704 0.94499 0.29701 -0.13704 0.74671 0.24661 -0.61774 0.74671 0.24661 -0.61774 0.74671 0.24661 -0.61774 0.74671 0.24661 -0.61774 0.87518 0.45089 -0.17538 0.87518 0.45089 -0.17538 0.87518 0.45089 -0.17538 0.87518 0.45089 -0.17538 0.90723 0.38821 -0.16193 0.90723 0.38821 -0.16193 0.90723 0.38821 -0.16193 0.90723 0.38821 -0.16193 0.74958 0.58999 0.30007 0.74958 0.58999 0.30007 0.73535 0.58797 0.33698 0.73535 0.58797 0.33698 0.73535 0.58797 0.33698 0.73535 0.58797 0.33698 0.78004 0.59533 0.19265 0.78004 0.59533 0.19265 0.78004 0.59533 0.19265 0.5236 0.67095 0.52503 0.5236 0.67095 0.52503 0.5236 0.67095 0.52503 0.5236 0.67095 0.52503 0.4253 0.64924 0.63057 0.4253 0.64924 0.63057 0.4253 0.64924 0.63057 0.4253 0.64924 0.63057 0.09627 0.66197 0.74332 0.09627 0.66197 0.74332 0.09627 0.66197 0.74332 0.09627 0.66197 0.74332 0.04985 0.62941 0.77547 0.04985 0.62941 0.77547 0.04985 0.62941 0.77547 0.04985 0.62941 0.77547 -0.40836 0.5653 0.71671 -0.40836 0.5653 0.71671 -0.40836 0.5653 0.71671 -0.40836 0.5653 0.71671 -0.33226 0.5895 0.73627 -0.33226 0.5895 0.73627 -0.33226 0.5895 0.73627 -0.82582 0.36581 0.42919 -0.82582 0.36581 0.42919 -0.73936 0.49001 0.46177 -0.73936 0.49001 0.46177 -0.73936 0.49001 0.46177 -0.73936 0.49001 0.46177 -0.99796 0.06346 -0.00662 -0.99796 0.06346 -0.00662 -0.99796 0.06346 -0.00662 -0.99796 0.06346 -0.00662 -0.96764 0.24729 -0.05027 -0.96764 0.24729 -0.05027 -0.96764 0.24729 -0.05027 -0.87531 -0.25141 -0.41306 -0.87531 -0.25141 -0.41306 -0.82908 -0.06315 -0.55556 -0.82908 -0.06315 -0.55556 -0.82908 -0.06315 -0.55556 -0.55954 -0.45478 -0.69288 -0.55954 -0.45478 -0.69288 -0.47554 -0.26716 -0.83814 -0.47554 -0.26716 -0.83814 -0.47554 -0.26716 -0.83814 -0.47554 -0.26716 -0.83814 -0.14312 -0.48903 -0.86044 -0.14312 -0.48903 -0.86044 -0.14312 -0.48903 -0.86044 -0.14312 -0.48903 -0.86044 -0.06624 -0.324 -0.94374 -0.06624 -0.324 -0.94374 -0.06624 -0.324 -0.94374 -0.06624 -0.324 -0.94374 0.37914 -0.21838 -0.8992 0.37914 -0.21838 -0.8992 0.37914 -0.21838 -0.8992 0.37914 -0.21838 -0.8992 0.41838 0.06053 -0.90625 0.41838 0.06053 -0.90625 0.41838 0.06053 -0.90625 0.41838 0.06053 -0.90625 0.00651 -0.03641 -0.99932 0.00651 -0.03641 -0.99932 0.00651 -0.03641 -0.99932 0.37513 -0.2983 -0.87767 0.37513 -0.2983 -0.87767 0.37513 -0.2983 -0.87767 0.37513 -0.2983 -0.87767 0.79815 0.10024 -0.59407 0.79815 0.10024 -0.59407 0.79815 0.10024 -0.59407 0.77532 0.06249 -0.62847 0.77532 0.06249 -0.62847 0.77532 0.06249 -0.62847 0.77532 0.06249 -0.62847 0.80448 0.28619 -0.52048 0.80448 0.28619 -0.52048 0.80448 0.28619 -0.52048 0.85299 0.48178 -0.20073 0.85299 0.48178 -0.20073 0.85299 0.48178 -0.20073 0.85299 0.48178 -0.20073 0.88813 0.42521 -0.1744 0.88813 0.42521 -0.1744 0.88813 0.42521 -0.1744 0.88813 0.42521 -0.1744 0.82393 0.50693 -0.25329 0.82393 0.50693 -0.25329 0.82393 0.50693 -0.25329 0.82393 0.50693 -0.25329 0.84079 0.53682 -0.06998 0.84079 0.53682 -0.06998 0.81193 0.57863 0.07715 0.81193 0.57863 0.07715 0.81193 0.57863 0.07715 0.81193 0.57863 0.07715 0.76806 0.5604 0.3099 0.76806 0.5604 0.3099 0.76806 0.5604 0.3099 0.76806 0.5604 0.3099 0.63595 0.63579 0.43742 0.63595 0.63579 0.43742 0.63595 0.63579 0.43742 0.63595 0.63579 0.43742 -0.15484 0.25248 0.95513 -0.15484 0.25248 0.95513 -0.15484 0.25248 0.95513 0.02432 0.55013 0.83473 0.02432 0.55013 0.83473 0.02432 0.55013 0.83473 0.02432 0.55013 0.83473 -0.73908 -0.1339 0.66018 -0.73908 -0.1339 0.66018 -0.73908 -0.1339 0.66018 -0.65835 0.23292 0.71577 -0.65835 0.23292 0.71577 -0.65835 0.23292 0.71577 -0.87898 -0.31763 0.35569 -0.87898 -0.31763 0.35569 -0.87898 -0.31763 0.35569 -0.87898 -0.31763 0.35569 -0.93198 -0.03516 0.3608 -0.93198 -0.03516 0.3608 -0.93198 -0.03516 0.3608 -0.93198 -0.03516 0.3608 -0.89278 -0.43489 0.11751 -0.89278 -0.43489 0.11751 -0.89278 -0.43489 0.11751 -0.89278 -0.43489 0.11751 -0.97081 -0.23578 0.04393 -0.97081 -0.23578 0.04393 -0.97081 -0.23578 0.04393 -0.83789 -0.52996 -0.13072 -0.83789 -0.52996 -0.13072 -0.83789 -0.52996 -0.13072 -0.83789 -0.52996 -0.13072 -0.87411 -0.41994 -0.24412 -0.87411 -0.41994 -0.24412 -0.87411 -0.41994 -0.24412 -0.58802 -0.54197 -0.60042 -0.58802 -0.54197 -0.60042 -0.58802 -0.54197 -0.60042 -0.61251 -0.54998 -0.56776 -0.61251 -0.54998 -0.56776 0.10088 -0.16882 -0.98047 0.10088 -0.16882 -0.98047 0.10088 -0.16882 -0.98047 0.10088 -0.16882 -0.98047 -0.11536 -0.47623 -0.87172 -0.11536 -0.47623 -0.87172 -0.11536 -0.47623 -0.87172 -0.11536 -0.47623 -0.87172 0.5919 0.23603 -0.77068 0.5919 0.23603 -0.77068 0.5919 0.23603 -0.77068 0.5919 0.23603 -0.77068 0.50419 -0.09142 -0.85874 0.50419 -0.09142 -0.85874 0.50419 -0.09142 -0.85874 0.56006 0.38317 -0.73451 0.56006 0.38317 -0.73451 0.56006 0.38317 -0.73451 0.56006 0.38317 -0.73451 0.73089 0.4551 -0.5086 0.73089 0.4551 -0.5086 0.73089 0.4551 -0.5086 0.76538 0.42182 -0.48607 0.76538 0.42182 -0.48607 0.76538 0.42182 -0.48607 0.76538 0.42182 -0.48607 0.51464 0.39308 -0.76199 0.51464 0.39308 -0.76199 0.51464 0.39308 -0.76199 0.51464 0.39308 -0.76199 0.74443 0.38748 -0.54377 0.74443 0.38748 -0.54377 0.74443 0.38748 -0.54377 0.74443 0.38748 -0.54377 0.49212 0.34168 -0.80067 0.49212 0.34168 -0.80067 0.49212 0.34168 -0.80067 0.49212 0.34168 -0.80067 0.78418 0.25425 -0.56606 0.78418 0.25425 -0.56606 0.46937 0.27665 0.83854 0.46937 0.27665 0.83854 0.46937 0.27665 0.83854 -0.09431 0.00669 0.99552 -0.09431 0.00669 0.99552 -0.09431 0.00669 0.99552 -0.09431 0.00669 0.99552 0.91262 0.28932 -0.28882 0.91262 0.28932 -0.28882 0.91262 0.28932 -0.28882 0.91262 0.28932 -0.28882 -0.20599 0.01669 0.97841 -0.20599 0.01669 0.97841 -0.20599 0.01669 0.97841 -0.20599 0.01669 0.97841 0.89896 0.43644 0.03732 0.89896 0.43644 0.03732 0.89896 0.43644 0.03732 -0.61026 -0.16497 0.77483 -0.61026 -0.16497 0.77483 -0.61026 -0.16497 0.77483 -0.66337 -0.22435 0.71387 -0.66337 -0.22435 0.71387 -0.66337 -0.22435 0.71387 -0.66337 -0.22435 0.71387 -0.80083 -0.30391 0.51605 -0.80083 -0.30391 0.51605 -0.80083 -0.30391 0.51605 -0.80382 -0.37536 0.4615 -0.80382 -0.37536 0.4615 -0.80382 -0.37536 0.4615 -0.80382 -0.37536 0.4615 -0.64806 -0.02071 0.76131 -0.64806 -0.02071 0.76131 -0.64806 -0.02071 0.76131 -0.64806 -0.02071 0.76131 -0.94017 -0.10207 0.32505 -0.94017 -0.10207 0.32505 -0.94017 -0.10207 0.32505 -0.94017 -0.10207 0.32505 -0.56892 0.4188 -0.70776 -0.56892 0.4188 -0.70776 -0.56892 0.4188 -0.70776 -0.56892 0.4188 -0.70776 0.00296 0.29414 -0.95576 0.00296 0.29414 -0.95576 0.00296 0.29414 -0.95576 0.00296 0.29414 -0.95576 -0.82054 -0.15787 -0.54936 -0.82054 -0.15787 -0.54936 -0.82054 -0.15787 -0.54936 -0.82054 -0.15787 -0.54936 0.19231 0.17211 -0.96612 0.19231 0.17211 -0.96612 0.19231 0.17211 -0.96612 0.19231 0.17211 -0.96612 -0.49813 -0.307 -0.81093 -0.49813 -0.307 -0.81093 -0.49813 -0.307 -0.81093 -0.49813 -0.307 -0.81093 0.96347 0.22388 -0.14695 0.96347 0.22388 -0.14695 0.96347 0.22388 -0.14695 0.96347 0.22388 -0.14695 -0.26256 0.43901 -0.85926 -0.26256 0.43901 -0.85926 -0.26256 0.43901 -0.85926 -0.54242 0.49835 -0.67633 -0.54242 0.49835 -0.67633 -0.54242 0.49835 -0.67633 -0.41649 0.42454 -0.80393 -0.41649 0.42454 -0.80393 -0.41649 0.42454 -0.80393 -0.41649 0.42454 -0.80393 -0.67572 0.35539 -0.64583 -0.67572 0.35539 -0.64583 -0.67572 0.35539 -0.64583 -0.67572 0.35539 -0.64583 -0.3634 0.04024 -0.93076 -0.3634 0.04024 -0.93076 -0.3634 0.04024 -0.93076 -0.3634 0.04024 -0.93076 -0.62495 0.23271 -0.74517 -0.62495 0.23271 -0.74517 -0.62495 0.23271 -0.74517 -0.81827 0.52155 -0.24172 -0.81827 0.52155 -0.24172 -0.81827 0.52155 -0.24172 -0.75022 0.51518 -0.41444 -0.75022 0.51518 -0.41444 -0.75022 0.51518 -0.41444 -0.79058 0.38139 -0.47909 -0.79058 0.38139 -0.47909 -0.79058 0.38139 -0.47909 -0.79058 0.38139 -0.47909 -0.92333 0.32847 -0.19889 -0.92333 0.32847 -0.19889 -0.92333 0.32847 -0.19889 -0.75141 0.28731 -0.594 -0.75141 0.28731 -0.594 -0.75141 0.28731 -0.594 -0.93715 0.24928 -0.24414 -0.93715 0.24928 -0.24414 -0.93715 0.24928 -0.24414 -0.93715 0.24928 -0.24414 -0.98085 0.11181 0.15944 -0.98085 0.11181 0.15944 -0.98085 0.11181 0.15944 -0.98085 0.11181 0.15944 -0.91686 0.32851 -0.22681 -0.91686 0.32851 -0.22681 -0.91686 0.32851 -0.22681 -0.91746 0.35984 0.16965 -0.91746 0.35984 0.16965 -0.91746 0.35984 0.16965 -0.91746 0.35984 0.16965 -0.78341 0.45859 0.41949 -0.78341 0.45859 0.41949 -0.78341 0.45859 0.41949 -0.78341 0.45859 0.41949 -0.88007 0.46651 0.08859 -0.88007 0.46651 0.08859 -0.88007 0.46651 0.08859 -0.76686 0.5721 0.29092 -0.76686 0.5721 0.29092 -0.76686 0.5721 0.29092 -0.55773 -0.1793 0.81043 -0.55773 -0.1793 0.81043 -0.55773 -0.1793 0.81043 -0.55773 -0.1793 0.81043 -0.88336 -0.07859 0.46206 -0.88336 -0.07859 0.46206 -0.50163 0.69782 0.51129 -0.50163 0.69782 0.51129 -0.59588 0.7452 0.29933 -0.59588 0.7452 0.29933 -0.59588 0.7452 0.29933 -0.65547 0.6305 0.41573 -0.65547 0.6305 0.41573 -0.65547 0.6305 0.41573 -0.65547 0.6305 0.41573 -0.62676 0.63962 0.44504 -0.62676 0.63962 0.44504 -0.62676 0.63962 0.44504 -0.54476 0.6298 0.5537 -0.54476 0.6298 0.5537 -0.54476 0.6298 0.5537 -0.72032 0.36917 0.58724 -0.72032 0.36917 0.58724 -0.72032 0.36917 0.58724 -0.72032 0.36917 0.58724 -0.61384 0.35496 0.70512 -0.61384 0.35496 0.70512 -0.61384 0.35496 0.70512 -0.32406 0.4662 0.82319 -0.32406 0.4662 0.82319 -0.32406 0.4662 0.82319 -0.32406 0.4662 0.82319 -0.59442 -0.10941 0.79668 -0.59442 -0.10941 0.79668 -0.59442 -0.10941 0.79668 -0.59442 -0.10941 0.79668 -0.31107 -0.09282 0.94584 -0.31107 -0.09282 0.94584 -0.31107 -0.09282 0.94584 0.11076 0.48025 0.87011 0.11076 0.48025 0.87011 0.11076 0.48025 0.87011 0.11076 0.48025 0.87011 -0.29355 0.60553 0.73971 -0.29355 0.60553 0.73971 -0.29355 0.60553 0.73971 0.26309 0.49649 0.82722 0.26309 0.49649 0.82722 0.26309 0.49649 0.82722 0.26309 0.49649 0.82722 0.03445 0.58442 0.81072 0.03445 0.58442 0.81072 0.03445 0.58442 0.81072 -0.39346 0.63897 0.66099 -0.39346 0.63897 0.66099 -0.39346 0.63897 0.66099 -0.47861 0.50125 0.72089 -0.47861 0.50125 0.72089 -0.47861 0.50125 0.72089 -0.47861 0.50125 0.72089 -0.76481 0.27971 0.58037 -0.76481 0.27971 0.58037 -0.76481 0.27971 0.58037 -0.62359 0.66469 0.4115 -0.62359 0.66469 0.4115 -0.62359 0.66469 0.4115 -0.11645 -0.48071 0.86912 -0.11645 -0.48071 0.86912 -0.11645 -0.48071 0.86912 -0.11645 -0.48071 0.86912 -0.09249 -0.63279 0.76878 -0.09249 -0.63279 0.76878 -0.61583 0.10861 0.78035 -0.61583 0.10861 0.78036 -0.61583 0.10861 0.78035 -0.17343 -0.59704 0.78324 -0.17343 -0.59704 0.78324 -0.17343 -0.59704 0.78324 -0.65305 -0.54185 0.52908 -0.65305 -0.54185 0.52908 -0.65305 -0.54185 0.52908 -0.49008 -0.66126 0.56793 -0.49008 -0.66126 0.56793 -0.49008 -0.66126 0.56793 -0.95383 -0.22218 0.20211 -0.95383 -0.22218 0.20211 -0.95383 -0.22218 0.20211 -0.95383 -0.22218 0.20211 -0.88365 -0.35808 0.30156 -0.88365 -0.35808 0.30156 -0.88365 -0.35808 0.30156 -0.88365 -0.35808 0.30156 -0.98592 0.16416 -0.03172 -0.98592 0.16416 -0.03172 -0.98592 0.16416 -0.03172 -0.997 0.05158 0.05764 -0.997 0.05158 0.05764 -0.997 0.05158 0.05764 -0.997 0.05158 0.05764 -0.9506 0.23782 -0.19951 -0.9506 0.23782 -0.19951 -0.9506 0.23782 -0.19951 -0.9506 0.23782 -0.19951 -0.8143 0.5236 -0.25052 -0.8143 0.5236 -0.25052 -0.8143 0.5236 -0.25052 -0.88576 0.4375 -0.15497 -0.88576 0.4375 -0.15497 -0.88576 0.4375 -0.15497 -0.88576 0.4375 -0.15497 -0.55682 0.70944 -0.43203 -0.55682 0.70944 -0.43203 -0.55682 0.70944 -0.43203 -0.55682 0.70944 -0.43203 -0.49685 0.83859 -0.22339 -0.49685 0.83859 -0.22339 -0.49685 0.83859 -0.22339 -0.49685 0.83859 -0.22339 -0.73821 0.65441 -0.16371 -0.73821 0.65441 -0.16371 -0.73821 0.65441 -0.16371 -0.75371 0.48298 -0.4457 -0.75371 0.48298 -0.4457 -0.87475 0.23239 -0.42522 -0.87475 0.23239 -0.42522 -0.87475 0.23239 -0.42522 -0.87475 0.23239 -0.42522 -0.42071 0.29876 -0.85659 -0.42071 0.29876 -0.85659 -0.42071 0.29876 -0.85659 -0.42071 0.29876 -0.85659 -0.98641 0.14645 -0.07445 -0.98641 0.14645 -0.07445 -0.98641 0.14645 -0.07445 -0.87116 -0.0725 0.48562 -0.87116 -0.0725 0.48562 -0.87116 -0.0725 0.48562 -0.994 -0.05626 0.09384 -0.994 -0.05626 0.09384 -0.994 -0.05626 0.09384 -0.994 -0.05626 0.09384 -0.82127 -0.23476 0.52001 -0.82127 -0.23476 0.52001 -0.82127 -0.23476 0.52001 -0.36243 0.04947 0.9307 -0.36243 0.04947 0.9307 -0.36243 0.04947 0.9307 -0.36243 0.04947 0.9307 -0.86337 0.11701 0.49082 -0.86337 0.11701 0.49082 -0.86337 0.11701 0.49082 -0.86337 0.11701 0.49082 -0.40291 -0.099 0.90987 -0.40291 -0.099 0.90987 -0.40291 -0.099 0.90987 -0.40291 -0.099 0.90987 0.19045 -0.02766 0.98131 0.19045 -0.02766 0.98131 0.19045 -0.02766 0.98131 0.19045 -0.02766 0.98131 -0.35004 -0.2576 0.90062 -0.35004 -0.2576 0.90062 -0.35004 -0.2576 0.90062 0.20497 -0.07929 0.97555 0.20497 -0.07929 0.97555 0.20497 -0.07929 0.97555 0.20497 -0.07929 0.97555 0.53127 0.19171 0.82523 0.53127 0.19171 0.82523 0.53127 0.19171 0.82523 0.2181 -0.39323 0.8932 0.2181 -0.39323 0.8932 0.2181 -0.39323 0.8932 0.39237 0.06857 0.91725 0.39237 0.06857 0.91725 0.39237 0.06857 0.91725 0.39237 0.06857 0.91725 0.09746 0.55254 0.82777 0.09746 0.55254 0.82777 0.09746 0.55254 0.82777 -0.13752 0.32082 0.9371 -0.13752 0.32082 0.9371 -0.13752 0.32082 0.9371 -0.13752 0.32082 0.9371 -0.12429 0.56967 0.81242 -0.12429 0.56967 0.81242 -0.12429 0.56967 0.81242 0.19076 0.59361 0.78182 0.19076 0.59361 0.78182 0.19076 0.59361 0.78182 0.19076 0.59361 0.78182 -0.05109 0.60723 0.79289 -0.05109 0.60723 0.79289 -0.05109 0.60723 0.79289 -0.05109 0.60723 0.79289 0.38843 0.53779 0.74826 0.38843 0.53779 0.74826 0.38843 0.53779 0.74826 0.75299 0.30748 0.58178 0.75299 0.30748 0.58178 0.75299 0.30748 0.58178 0.75298 0.30748 0.58178 0.59346 0.07435 0.80142 0.59346 0.07435 0.80142 0.59346 0.07435 0.80142 0.46197 0.50671 0.7279 0.46197 0.50671 0.7279 0.46197 0.50671 0.7279 0.46197 0.50671 0.7279 0.57219 0.06973 0.81715 0.57219 0.06973 0.81715 0.57219 0.06973 0.81715 0.14817 0.03148 0.98846 0.14817 0.03148 0.98846 0.14817 0.03148 0.98846 0.14817 0.03148 0.98846 0.64191 0.15312 0.75134 0.64191 0.15312 0.75134 0.64191 0.15312 0.75134 0.64191 0.15312 0.75134 0.17551 0.21454 0.96082 0.17551 0.21454 0.96082 0.17551 0.21454 0.96082 -0.32119 0.27462 0.90632 -0.32119 0.27462 0.90632 -0.32119 0.27462 0.90632 -0.32119 0.27462 0.90632 -0.8728 0.27914 0.40038 -0.8728 0.27914 0.40038 -0.8728 0.27914 0.40038 -0.7485 0.04897 -0.66133 -0.7485 0.04897 -0.66133 -0.7485 0.04897 -0.66133 -0.7485 0.04897 -0.66133 -0.28031 -0.09399 -0.9553 -0.28031 -0.09399 -0.9553 -0.28031 -0.09399 -0.9553 -0.28031 -0.09399 -0.9553 0.44585 0.48346 0.75332 0.44585 0.48346 0.75332 0.44585 0.48346 0.75332 0.44585 0.48346 0.75332 0.39164 0.37502 0.84022 0.39164 0.37502 0.84022 0.39164 0.37502 0.84022 0.39164 0.37502 0.84022 0.5553 0.38538 0.73697 0.5553 0.38538 0.73697 0.5553 0.38538 0.73697 0.40062 0.36804 0.83908 0.40062 0.36804 0.83908 0.40062 0.36804 0.83908 0.40062 0.36804 0.83908 0.48289 0.32088 0.81477 0.48289 0.32088 0.81477 0.48289 0.32088 0.81477 0.48289 0.32088 0.81477 0.65967 0.41459 0.62685 0.65967 0.41459 0.62685 0.65967 0.41459 0.62685 0.65967 0.41459 0.62685 0.63515 0.28109 0.71943 0.63515 0.28109 0.71943 -0.72179 0.0311 0.69141 -0.72179 0.0311 0.69141 -0.72179 0.0311 0.69141 -0.72179 0.0311 0.69141 -0.7733 0.43866 0.4578 -0.7733 0.43866 0.4578 -0.7733 0.43866 0.4578 -0.8959 0.37927 -0.23135 -0.8959 0.37927 -0.23135 -0.8959 0.37927 -0.23135 -0.8959 0.37927 -0.23135 -0.75145 0.31447 -0.58002 -0.75145 0.31447 -0.58002 0.47706 -0.04768 0.87757 0.47706 -0.04768 0.87757 0.47706 -0.04768 0.87757 0.47706 -0.04768 0.87757 0.79213 0.35445 0.49688 0.79213 0.35445 0.49688 0.79213 0.35445 0.49688 0.79213 0.35445 0.49688 0.87353 0.37443 0.31104 0.87353 0.37443 0.31104 0.87353 0.37443 0.31104 0.87353 0.37443 0.31104 0.80187 0.46364 0.37687 0.80187 0.46364 0.37687 0.80187 0.46364 0.37687 0.99983 0.01825 0.002 0.99983 0.01825 0.002 0.99983 0.01825 0.002 0.99983 0.01825 0.002 0.63659 -0.18774 -0.748 0.63659 -0.18774 -0.748 0.63659 -0.18774 -0.748 0.91285 0.36973 -0.17323 0.91285 0.36973 -0.17323 0.91285 0.36973 -0.17323 0.91285 0.36973 -0.17323 0.76031 -0.19929 -0.61823 0.76031 -0.19929 -0.61823 0.76031 -0.19929 -0.61823 0.76031 -0.19929 -0.61823 0.49259 -0.20905 -0.84478 0.49259 -0.20905 -0.84478 0.49259 -0.20905 -0.84478 0.49259 -0.20905 -0.84478 0.92253 0.11329 -0.36892 0.92253 0.11329 -0.36892 0.92253 0.11329 -0.36892 0.42814 0.12973 -0.89436 0.42814 0.12973 -0.89436 0.42814 0.12973 -0.89436 0.87067 -0.02558 -0.4912 0.87067 -0.02558 -0.4912 0.87067 -0.02558 -0.4912 0.87067 -0.02558 -0.4912 0.82048 0.02456 -0.57115 0.82048 0.02456 -0.57115 0.82048 0.02456 -0.57115 0.82048 0.02456 -0.57115 0.52884 -0.57833 0.62118 0.52884 -0.57833 0.62118 0.52884 -0.57833 0.62118 0.61064 -0.14097 0.77926 0.61064 -0.14097 0.77926 0.61064 -0.14097 0.77926 -0.40754 -0.27653 0.87031 -0.40754 -0.27653 0.87031 -0.51514 0.09866 0.85141 -0.51514 0.09866 0.85141 -0.51514 0.09866 0.85141 -0.82832 0.21126 0.5189 -0.82832 0.21126 0.5189 -0.86022 0.29775 0.41396 -0.86022 0.29775 0.41396 -0.86022 0.29775 0.41396 -0.86022 0.29775 0.41396 -0.3991 0.71695 -0.57158 -0.3991 0.71695 -0.57158 -0.3991 0.71695 -0.57158 -0.3991 0.71695 -0.57158 -0.3978 0.38406 -0.83322 -0.3978 0.38406 -0.83322 -0.3978 0.38406 -0.83322 -0.51938 0.71443 -0.46886 -0.51938 0.71443 -0.46886 -0.51938 0.71443 -0.46886 -0.51938 0.71443 -0.46886 0.30183 0.47658 -0.82569 0.30183 0.47658 -0.82569 0.30183 0.47658 -0.82569 0.35689 0.43113 -0.82871 0.35689 0.43113 -0.82871 0.35689 0.43113 -0.82871 0.35689 0.43113 -0.82871 -0.80706 0.17832 0.5629 -0.80706 0.17832 0.5629 -0.80706 0.17832 0.5629 -0.80706 0.17832 0.5629 0.77606 0.10658 -0.62159 0.77606 0.10658 -0.62159 0.77606 0.10658 -0.62159 0.77606 0.10658 -0.62159 0.39131 -0.15094 -0.9078 0.39131 -0.15094 -0.9078 0.39131 -0.15094 -0.9078 0.24531 0.0774 -0.96635 0.24531 0.0774 -0.96635 0.24531 0.0774 -0.96635 -0.88172 -0.38811 -0.2682 -0.88172 -0.38811 -0.2682 -0.88172 -0.38811 -0.2682 -0.88172 -0.38811 -0.2682 -0.82392 -0.5567 -0.10603 -0.82392 -0.5567 -0.10603 -0.82392 -0.5567 -0.10603 -0.82392 -0.5567 -0.10603 0.50542 0.46894 0.72433 0.50542 0.46894 0.72433 0.50542 0.46894 0.72433 -0.32324 0.27714 0.90482 -0.32324 0.27714 0.90482 0.99814 0.04677 -0.03906 0.99814 0.04677 -0.03906 -0.20164 -0.06103 -0.97756 -0.20163 -0.06103 -0.97756 -0.20163 -0.06103 -0.97756 -0.20164 -0.06103 -0.97756 -0.02993 -0.09591 -0.99494 -0.02993 -0.09591 -0.99494 -0.02993 -0.09591 -0.99494 -0.02993 -0.09591 -0.99494 -0.40448 0.90117 -0.15582 -0.40448 0.90117 -0.15582 -0.40448 0.90117 -0.15582 -0.40448 0.90117 -0.15582 -0.07774 0.65638 -0.75041 -0.07774 0.65638 -0.75041 -0.07774 0.65638 -0.75041</float_array>
          <technique_common>
            <accessor source="#norm_0-array" count="4326" stride="3">
              <param name="X" type="float"/>
              <param name="Y" type="float"/>
              <param name="Z" type="float"/>
            </accessor>
          </technique_common>
        </source>
        <source id="uvs_0">
          <float_array id="uvs_0-array" count="1248">0.3638 0.38584 0.36646 0.38896 0.36528 0.39789 0.36157 0.39555 0.35872 0.39902 0.36062 0.39461 0.36368 0.39599 0.67005 0.5368 0.66682 0.54142 0.66904 0.54322 0.67031 0.54178 0.6674 0.54308 0.6684 0.53759 0.35394 0.41649 0.3553 0.41518 0.35665 0.41621 0.66399 0.54265 0.66351 0.55572 0.6655 0.55643 0.65797 0.55555 0.36881 0.45059 0.36683 0.47272 0.35215 0.47348 0.35766 0.44572 0.38549 0.46962 0.38896 0.47216 0.36844 0.44589 0.37637 0.47197 0.42398 0.46413 0.41063 0.48094 0.40632 0.45788 0.38147 0.48029 0.44384 0.42078 0.42441 0.41905 0.48616 0.45987 0.48597 0.41333 0.44856 0.49063 0.36777 0.40341 0.36694 0.42095 0.3618 0.41808 0.36803 0.39951 0.36738 0.41891 0.36598 0.40113 0.35931 0.41576 0.36396 0.41788 0.43938 0.22438 0.43698 0.21964 0.44827 0.23723 0.44805 0.23764 0.44674 0.23348 0.43636 0.21677 0.43043 0.20462 0.28039 0.79595 0.28299 0.80162 0.27713 0.76764 0.27582 0.77057 0.28807 0.81235 0.29625 0.832 0.28309 0.78202 0.44689 0.21235 0.45663 0.22818 0.456 0.2301 0.44428 0.20989 0.44475 0.20477 0.4549 0.22367 0.43987 0.19469 0.56858 0.62848 0.58595 0.61007 0.59966 0.65169 0.58012 0.6845 0.54481 0.58096 0.57992 0.56002 0.53582 0.65587 0.59042 0.59251 0.57019 0.53696 0.53661 0.5385 0.54642 0.58632 0.58361 0.64535 0.62633 0.66398 0.63071 0.62849 0.54076 0.63714 0.48014 0.5117 0.51756 0.49697 0.55406 0.49013 0.53849 0.44689 0.53088 0.40321 0.62029 0.63315 0.6397 0.64294 0.65886 0.67756 0.62646 0.67186 0.6249 0.60594 0.63316 0.61138 0.60763 0.62309 0.62788 0.61819 0.63195 0.60038 0.62148 0.60764 0.40174 0.46833 0.42511 0.41644 0.4491 0.40822 0.44365 0.45406 0.37397 0.49677 0.64896 0.62599 0.66037 0.65204 0.68057 0.66757 0.66542 0.63756 0.62991 0.60989 0.654 0.60754 0.64554 0.60343 0.4902 0.77352 0.51197 0.78833 0.52417 0.74896 0.48754 0.73694 0.46065 0.78032 0.47966 0.81178 0.44987 0.73168 0.3822 0.87277 0.35566 0.86378 0.3564 0.84 0.39974 0.85578 0.44217 0.86873 0.40245 0.88794 0.37048 0.88551 0.52624 0.9117 0.51352 0.91073 0.46657 0.91667 0.50041 0.91472 0.46819 0.91233 0.52616 0.88889 0.55605 0.89353 0.57623 0.89158 0.42324 0.91279 0.44091 0.9046 0.39777 0.90157 0.36398 0.89099 0.3942 0.9025 0.43487 0.90303 0.48707 0.87938 0.48351 0.82655 0.53511 0.83197 0.58046 0.84432 0.57831 0.78093 0.62193 0.79474 0.64833 0.79964 0.61348 0.85198 0.66234 0.79688 0.63268 0.8486 0.65828 0.78864 0.62929 0.84392 0.57317 0.88969 0.61252 0.83341 0.56139 0.87603 0.49863 0.89815 0.53373 0.85795 0.47545 0.87679 0.41805 0.87983 0.45074 0.84894 0.39566 0.84756 0.34806 0.84544 0.37163 0.87701 0.3124 0.83938 0.33529 0.86831 0.31534 0.85637 0.34028 0.87427 0.30448 0.83299 0.32696 0.84959 0.29991 0.79964 0.3235 0.81988 0.30491 0.76627 0.33789 0.79019 0.38127 0.80962 0.35408 0.74576 0.40061 0.76364 0.45685 0.77563 0.43118 0.82063 0.51757 0.77596 0.4757 0.71784 0.529 0.71887 0.57767 0.73605 0.62376 0.71216 0.61716 0.75252 0.66143 0.71704 0.65477 0.75814 0.68139 0.71143 0.67103 0.75349 0.68239 0.70155 0.67317 0.73907 0.66076 0.68395 0.65285 0.72182 0.64165 0.77925 0.61485 0.70737 0.61051 0.76756 0.58119 0.82134 0.56871 0.75634 0.54461 0.80384 0.50479 0.83598 0.43178 0.81701 0.42002 0.77889 0.37118 0.78043 0.38006 0.81531 0.32464 0.77938 0.33139 0.81363 0.29143 0.77316 0.29685 0.80715 0.32558 0.74308 0.29398 0.73551 0.27934 0.72873 0.30893 0.69583 0.29683 0.69225 0.29227 0.69618 0.27689 0.73352 0.2978 0.70708 0.28314 0.74557 0.31774 0.72575 0.31667 0.66345 0.33645 0.67428 0.37107 0.68939 0.35322 0.62073 0.38585 0.62616 0.44007 0.63957 0.4187 0.70771 0.49104 0.64545 0.45273 0.56053 0.49743 0.56594 0.45062 0.49974 0.49763 0.49883 0.54137 0.50078 0.48838 0.44813 0.52963 0.44673 0.55876 0.44794 0.56941 0.49962 0.57479 0.44775 0.58469 0.49476 0.59404 0.54491 0.58862 0.48986 0.59808 0.5359 0.60971 0.57779 0.60445 0.59078 0.59131 0.53326 0.60811 0.57729 0.57818 0.48804 0.57822 0.44566 0.5671 0.44423 0.56547 0.40564 0.55583 0.40382 0.54378 0.36773 0.53461 0.36697 0.51032 0.36697 0.5147 0.33095 0.49811 0.32971 0.4778 0.32963 0.47906 0.37034 0.46061 0.3296 0.45168 0.37239 0.45218 0.32919 0.43879 0.37063 0.45344 0.32865 0.44157 0.36827 0.46314 0.32873 0.45702 0.36545 0.47791 0.32936 0.47924 0.36427 0.48201 0.4044 0.50297 0.36456 0.51485 0.4036 0.52422 0.36594 0.54336 0.40454 0.53907 0.36731 0.56202 0.40605 0.50955 0.3321 0.51985 0.33283 0.52227 0.33236 0.50452 0.30383 0.50603 0.30264 0.50118 0.30046 0.48965 0.276 0.4864 0.27336 0.48012 0.27131 0.49077 0.29842 0.47276 0.27093 0.47818 0.29743 0.46659 0.27195 0.46736 0.29742 0.46319 0.27357 0.46147 0.29786 0.4631 0.27516 0.46154 0.29858 0.46609 0.27647 0.46704 0.2996 0.47156 0.27758 0.47637 0.30099 0.47832 0.27844 0.48739 0.30254 0.49448 0.33068 0.4976 0.30369 0.48471 0.27871 0.48894 0.27794 0.46971 0.25496 0.47219 0.2534 0.47242 0.25091 0.47009 0.24759 0.45226 0.22072 0.46613 0.24547 0.44892 0.22232 0.46176 0.24621 0.4467 0.2275 0.45854 0.24915 0.45728 0.25263 0.45776 0.25526 0.45932 0.25622 0.44913 0.23526 0.46215 0.25626 0.45119 0.23312 0.46593 0.2558 0.45389 0.23155 0.43785 0.21057 0.44111 0.20928 0.43123 0.19086 0.43571 0.19065 0.43227 0.17934 0.43657 0.17894 0.43938 0.18531 0.4355 0.17716 0.43614 0.18472 0.4395 0.20062 0.44307 0.19939 0.43094 0.19212 0.43617 0.20764 0.43049 0.18212 0.42892 0.19571 0.43618 0.21446 0.40079 0.50588 0.41013 0.55253 0.36631 0.56729 0.36812 0.5258 0.34725 0.54116 0.35425 0.51447 0.34148 0.57519 0.33146 0.58223 0.3366 0.55264 0.33204 0.6183 0.32459 0.61799 0.33123 0.62052 0.33501 0.58937 0.31063 0.65702 0.31722 0.65521 0.33619 0.65729 0.35366 0.6246 0.39975 0.62606 0.38193 0.59473 0.35132 0.59469 0.36881 0.65782 0.40437 0.65084 0.42698 0.61289 0.33755 0.70327 0.3756 0.7009 0.41083 0.6959 0.43367 0.64306 0.36887 0.74419 0.40947 0.73906 0.44442 0.69251 0.47911 0.69262 0.50115 0.63486 0.46605 0.63757 0.50936 0.58606 0.47632 0.59132 0.44828 0.6007 0.46709 0.55468 0.4377 0.56846 0.41915 0.58235 0.40299 0.54891 0.38292 0.56212 0.36217 0.56759 0.36743 0.5355 0.35193 0.53868 0.34143 0.53755 0.34514 0.56665 0.33779 0.53309 0.33623 0.56123 0.342 0.52575 0.33896 0.50435 0.34614 0.49965 0.3606 0.49257 0.3437 0.47476 0.3414 0.47619 0.34742 0.44423 0.35032 0.44419 0.33904 0.5075 0.34562 0.50873 0.34496 0.47697 0.35327 0.47662 0.35502 0.44431 0.34936 0.44411 0.35739 0.50728 0.37304 0.50258 0.36454 0.47486 0.38666 0.52753 0.41303 0.5147 0.39164 0.4942 0.44193 0.52838 0.5013 0.54444 0.36235 0.44486 0.52538 0.69263 0.57135 0.69714 0.682 0.674 0.65938 0.64265 0.64709 0.6112 0.64064 0.58212 0.65034 0.58174 0.65673 0.57927 0.66088 0.5582 0.65269 0.57731 0.64359 0.5768 0.65349 0.55723 0.63721 0.5794 0.6546 0.55909 0.66304 0.54578</float_array>
          <technique_common>
            <accessor source="#uvs_0-array" count="1248" stride="2">
              <param name="S" type="float"/>
              <param name="T" type="float"/>
            </accessor>
          </technique_common>
        </source>
        <vertices id="vert_0">
          <input semantic="POSITION" source="#pos_0"/>
        </vertices>
        <triangles count="828" material="mat_0">
          <input semantic="VERTEX" source="#vert_0" offset="0"/>
          <input semantic="NORMAL" source="#norm_0" offset="1"/>
          <input semantic="TEXCOORD" source="#uvs_0" offset="2"/>
          <p>0 0 0 1 1 1 2 2 2 0 0 0 2 2 2 3 3 3 0 4 0 3 5 3 4 6 4 0 4 0 4 6 4 5 7 5 0 8 0 5 8 5 6 9 6 0 8 0 6 9 6 1 8 1 7 10 7 8 11 8 9 10 9 7 10 7 9 10 9 10 12 10 7 13 7 10 13 10 11 14 11 7 13 7 11 14 11 12 15 12 4 16 4 13 17 13 14 18 14 4 16 4 14 18 14 5 18 5 4 19 4 3 19 3 15 20 15 4 19 4 15 20 15 13 20 13 7 21 7 12 22 12 16 23 16 7 21 7 16 23 16 8 24 8 9 25 9 17 26 17 18 27 18 9 25 9 18 27 18 10 28 10 9 29 9 8 30 8 19 31 19 9 29 9 19 31 19 17 32 17 20 33 20 21 34 21 22 34 22 20 33 20 22 34 22 23 35 23 20 36 20 24 37 24 25 37 25 20 36 20 25 37 25 21 38 21 20 39 20 26 40 26 27 41 27 20 39 20 27 41 27 24 41 24 28 42 28 25 43 25 24 44 24 28 42 28 24 44 24 29 44 29 28 45 28 30 46 30 31 47 31 28 45 28 31 47 31 25 46 25 28 48 28 32 49 32 33 48 33 28 48 28 33 48 33 30 50 30 28 51 28 34 52 34 35 53 35 28 51 28 35 53 35 32 52 32 28 54 28 29 55 29 36 56 36 28 54 28 36 56 36 34 57 34 37 58 37 38 58 38 39 58 39 37 58 37 39 58 39 2 59 2 37 60 37 40 61 40 41 62 41 37 60 37 41 62 41 38 63 38 37 64 37 2 65 2 1 66 1 37 64 37 1 66 1 40 67 40 42 68 42 6 69 6 43 70 43 42 68 42 43 70 43 44 68 44 42 71 42 44 71 44 41 72 41 42 71 42 41 72 41 40 71 40 42 73 42 40 74 40 1 75 1 42 73 42 1 75 1 6 76 6 45 77 45 46 78 46 47 79 47 45 77 45 47 79 47 48 80 48 45 81 45 48 81 48 49 82 49 45 81 45 49 82 49 50 83 50 45 84 45 50 85 50 51 86 51 45 84 45 51 86 51 46 87 46 52 88 52 53 89 53 54 88 54 52 88 52 54 88 54 55 90 55 52 91 52 56 92 56 57 93 57 52 91 52 57 93 57 53 94 53 52 95 52 55 96 55 58 97 58 52 95 52 58 97 58 56 96 56 59 98 59 60 99 60 61 100 61 59 98 59 61 100 61 62 101 62 59 102 59 63 103 63 64 104 64 59 102 59 64 104 64 60 105 60 59 106 59 62 107 62 65 108 65 59 106 59 65 108 65 63 106 63 66 109 66 67 110 67 68 111 68 66 109 66 68 111 68 69 112 69 70 113 70 71 114 71 67 115 67 70 113 70 67 115 67 66 116 66 66 117 66 69 117 69 72 118 72 66 117 66 72 118 72 70 119 70 73 120 73 74 121 74 75 122 75 73 120 73 75 122 75 76 123 76 73 124 73 77 125 77 78 126 78 73 124 73 78 126 78 79 127 79 73 128 73 76 129 76 80 130 80 73 128 73 80 130 80 77 131 77 34 132 34 36 133 36 81 134 81 34 132 34 81 134 81 82 135 82 34 136 34 82 137 82 83 138 83 34 136 34 83 138 83 84 139 84 34 140 34 84 141 84 85 142 85 34 140 34 85 142 85 35 140 35 86 143 86 87 144 87 88 145 88 86 143 86 88 145 88 89 144 89 86 146 86 90 147 90 91 148 91 86 146 86 91 148 91 87 148 87 86 149 86 89 150 89 68 151 68 86 149 86 68 151 68 92 152 92 86 153 86 93 154 93 94 155 94 86 153 86 94 155 94 90 156 90 86 157 86 92 158 92 95 159 95 86 157 86 95 159 95 93 160 93 96 161 96 97 162 97 98 163 98 96 161 96 98 163 98 99 162 99 96 164 96 100 165 100 31 165 31 96 164 96 31 165 31 30 166 30 96 167 96 30 168 30 33 169 33 96 167 96 33 169 33 97 170 97 101 171 101 102 172 102 103 172 103 101 171 101 103 172 103 104 173 104 101 174 101 105 175 105 79 176 79 101 174 101 79 176 79 102 177 102 101 178 101 93 179 93 95 180 95 101 178 101 95 180 95 105 181 105 101 182 101 104 183 104 106 184 106 101 182 101 106 184 106 107 184 107 101 185 101 107 186 107 94 187 94 101 185 101 94 187 94 93 188 93 108 189 108 109 190 109 110 191 110 108 189 108 110 191 110 111 190 111 108 192 108 112 192 112 113 192 113 108 192 108 113 192 113 109 193 109 108 194 108 111 195 111 114 196 114 108 194 108 114 196 114 112 197 112 115 198 115 116 199 116 117 200 117 115 198 115 117 200 117 118 198 118 115 201 115 118 202 118 119 203 119 115 201 115 119 203 119 120 204 120 115 205 115 120 206 120 121 207 121 115 205 115 121 207 121 116 208 116 122 209 122 123 210 123 124 211 124 122 209 122 124 211 124 125 212 125 125 213 125 126 214 126 127 215 127 125 213 125 127 215 127 128 215 128 125 216 125 128 216 128 129 217 129 125 216 125 129 217 129 122 218 122 125 219 125 124 220 124 130 221 130 125 219 125 130 221 130 126 222 126 130 223 130 124 224 124 131 224 131 130 223 130 131 224 131 132 225 132 130 226 130 132 227 132 133 228 133 130 226 130 133 228 133 134 229 134 130 230 130 134 230 134 135 231 135 130 230 130 135 231 135 126 232 126 135 233 135 120 234 120 119 235 119 135 233 135 119 235 119 136 236 136 135 237 135 136 238 136 127 239 127 135 237 135 127 239 127 126 240 126 135 241 135 134 241 134 121 242 121 135 241 135 121 242 121 120 243 120 136 244 136 119 245 119 137 246 137 136 244 136 137 246 137 138 247 138 136 248 136 138 248 138 139 249 139 136 248 136 139 249 139 127 248 127 139 250 139 138 251 138 140 251 140 139 250 139 140 251 140 141 252 141 139 253 139 141 254 141 142 255 142 139 253 139 142 255 142 143 255 143 139 256 139 143 256 143 128 257 128 139 256 139 128 257 128 127 258 127 143 259 143 142 260 142 144 261 144 143 259 143 144 261 144 145 262 145 143 263 143 145 264 145 129 265 129 143 263 143 129 265 129 128 266 128 145 267 145 144 268 144 146 269 146 145 267 145 146 269 146 147 270 147 145 271 145 147 271 147 148 272 148 145 271 145 148 272 148 129 271 129 148 273 148 147 274 147 149 275 149 148 273 148 149 275 149 150 276 150 148 277 148 150 278 150 151 279 151 148 277 148 151 279 151 123 280 123 148 281 148 123 282 123 122 283 122 148 281 148 122 283 122 129 284 129 151 285 151 150 286 150 152 287 152 151 285 151 152 287 152 153 285 153 151 288 151 153 289 153 154 290 154 151 288 151 154 290 154 131 291 131 151 292 151 131 293 131 124 293 124 151 292 151 124 293 124 123 294 123 154 295 154 153 296 153 155 296 155 154 295 154 155 296 155 156 297 156 154 298 154 156 298 156 157 299 157 154 298 154 157 299 157 158 300 158 154 301 154 158 302 158 132 301 132 154 301 154 132 301 132 131 303 131 158 304 158 157 305 157 159 306 159 158 304 158 159 306 159 160 304 160 158 307 158 160 308 160 133 309 133 158 307 158 133 309 133 132 310 132 160 311 160 159 312 159 57 312 57 160 311 160 57 312 57 161 313 161 160 314 160 161 315 161 162 315 162 160 314 160 162 315 162 133 315 133 162 316 162 161 317 161 163 318 163 162 316 162 163 318 163 164 316 164 162 319 162 164 320 164 116 321 116 162 319 162 116 321 116 121 322 121 162 323 162 121 323 121 134 324 134 162 323 162 134 324 134 133 325 133 164 326 164 163 327 163 165 328 165 164 326 164 165 328 165 166 329 166 164 330 164 166 331 166 117 332 117 164 330 164 117 332 117 116 333 116 166 334 166 165 335 165 167 335 167 166 334 166 167 335 167 168 336 168 166 337 166 168 338 168 169 338 169 166 337 166 169 338 169 117 339 117 169 340 169 168 341 168 170 342 170 169 340 169 170 342 170 171 340 171 169 343 169 171 344 171 172 345 172 169 343 169 172 345 172 173 346 173 169 347 169 173 348 173 118 349 118 169 347 169 118 349 118 117 350 117 173 351 173 172 352 172 174 353 174 173 351 173 174 353 174 137 354 137 173 355 173 137 356 137 119 357 119 173 355 173 119 357 119 118 358 118 174 359 174 172 360 172 175 361 175 174 359 174 175 361 175 176 362 176 174 363 174 176 364 176 177 364 177 174 363 174 177 364 177 140 365 140 174 366 174 140 366 140 138 367 138 174 366 174 138 367 138 137 368 137 177 369 177 176 370 176 72 370 72 177 369 177 72 370 72 69 371 69 177 372 177 69 373 69 178 374 178 177 372 177 178 374 178 179 375 179 177 376 177 179 377 179 141 378 141 177 376 177 141 378 141 140 377 140 179 379 179 178 380 178 180 380 180 179 379 179 180 380 180 181 380 181 179 381 179 181 382 181 142 382 142 179 381 179 142 382 142 141 383 141 181 384 181 180 384 180 182 385 182 181 384 181 182 385 182 183 386 183 181 387 181 183 387 183 144 387 144 181 387 181 144 387 144 142 388 142 183 389 183 182 390 182 184 391 184 183 389 183 184 391 184 185 392 185 183 393 183 185 394 185 146 395 146 183 393 183 146 395 146 144 396 144 185 397 185 184 398 184 186 399 186 185 397 185 186 399 186 187 400 187 185 401 185 187 402 187 188 403 188 185 401 185 188 403 188 146 402 146 188 404 188 187 405 187 189 406 189 188 404 188 189 406 189 190 407 190 188 408 188 190 409 190 191 410 191 188 408 188 191 410 191 149 411 149 188 412 188 149 413 149 147 412 147 188 412 188 147 412 147 146 414 146 191 415 191 190 416 190 192 416 192 191 415 191 192 416 192 193 417 193 191 418 191 193 419 193 194 420 194 191 418 191 194 420 194 152 421 152 191 422 191 152 423 152 150 424 150 191 422 191 150 424 150 149 424 149 194 425 194 193 426 193 109 427 109 194 425 194 109 427 109 113 428 113 194 429 194 113 430 113 195 431 195 194 429 194 195 431 195 155 429 155 194 432 194 155 433 155 153 434 153 194 432 194 153 434 153 152 435 152 195 436 195 113 437 113 112 438 112 195 436 195 112 438 112 196 439 196 195 440 195 196 441 196 197 442 197 195 440 195 197 442 197 198 443 198 195 444 195 198 445 198 156 446 156 195 444 195 156 446 156 155 446 155 198 447 198 197 448 197 199 449 199 198 447 198 199 449 199 200 450 200 198 451 198 200 452 200 157 453 157 198 451 198 157 453 157 156 454 156 200 455 200 199 456 199 201 457 201 200 455 200 201 457 201 202 458 202 200 459 200 202 460 202 159 461 159 200 459 200 159 461 159 157 462 157 202 463 202 201 463 201 54 464 54 202 463 202 54 464 54 53 465 53 202 466 202 53 467 53 57 468 57 202 466 202 57 468 57 159 469 159 201 470 201 199 471 199 203 472 203 201 470 201 203 472 203 204 473 204 201 474 201 204 475 204 205 476 205 201 474 201 205 476 205 54 477 54 205 478 205 204 479 204 206 480 206 205 478 205 206 480 206 207 481 207 205 482 205 207 483 207 208 484 208 205 482 205 208 484 208 209 482 209 205 485 205 209 486 209 55 487 55 205 485 205 55 487 55 54 488 54 209 489 209 208 490 208 210 491 210 209 489 209 210 491 210 211 492 211 209 493 209 211 494 211 58 495 58 209 493 209 58 495 58 55 496 55 211 497 211 210 498 210 212 497 212 211 497 211 212 497 212 167 499 167 211 500 211 167 501 167 165 502 165 211 500 211 165 502 165 58 503 58 212 504 212 210 505 210 213 506 213 212 504 212 213 506 213 214 507 214 212 508 212 214 509 214 215 510 215 212 508 212 215 510 215 170 511 170 212 512 212 170 513 170 168 514 168 212 512 212 168 514 168 167 515 167 215 516 215 214 517 214 216 518 216 215 516 215 216 518 216 217 519 217 215 520 215 217 521 217 218 522 218 215 520 215 218 522 218 219 523 219 215 524 215 219 525 219 171 526 171 215 524 215 171 526 171 170 527 170 219 528 219 218 529 218 220 528 220 219 528 219 220 528 220 175 528 175 219 530 219 175 530 175 172 531 172 219 530 219 172 531 172 171 532 171 220 533 220 218 534 218 221 535 221 220 533 220 221 535 221 222 536 222 220 537 220 222 538 222 70 539 70 220 537 220 70 539 70 72 537 72 220 540 220 72 541 72 176 542 176 220 540 220 176 542 176 175 540 175 222 543 222 221 544 221 223 545 223 222 543 222 223 545 223 224 546 224 222 547 222 224 548 224 225 547 225 222 547 222 225 547 225 70 549 70 225 550 225 224 551 224 226 552 226 225 550 225 226 552 226 227 552 227 225 553 225 227 554 227 228 555 228 225 553 225 228 555 228 229 556 229 225 557 225 229 558 229 71 559 71 225 557 225 71 559 71 70 560 70 229 561 229 228 562 228 230 563 230 229 561 229 230 563 230 231 564 231 229 565 229 231 566 231 232 567 232 229 565 229 232 567 232 71 568 71 232 569 232 231 570 231 233 571 233 232 569 232 233 571 233 234 572 234 232 573 232 234 574 234 235 575 235 232 573 232 235 575 235 236 576 236 232 577 232 236 578 236 67 579 67 232 577 232 67 579 67 71 580 71 236 581 236 235 581 235 95 582 95 236 581 236 95 582 95 92 583 92 236 584 236 92 585 92 68 586 68 236 584 236 68 586 68 67 587 67 235 588 235 234 589 234 237 590 237 235 588 235 237 590 237 238 590 238 235 591 235 238 592 238 105 593 105 235 591 235 105 593 105 95 594 95 238 595 238 237 596 237 74 596 74 238 595 238 74 596 74 73 596 73 238 597 238 73 597 73 79 598 79 238 597 238 79 598 79 105 599 105 237 600 237 234 601 234 233 602 233 237 600 237 233 602 233 239 603 239 237 604 237 239 605 239 83 606 83 237 604 237 83 606 83 74 607 74 239 608 239 233 609 233 240 610 240 239 608 239 240 610 240 241 609 241 239 611 239 241 612 241 84 613 84 239 611 239 84 613 84 83 614 83 241 615 241 240 616 240 242 617 242 241 615 241 242 617 242 243 617 243 241 618 241 243 619 243 85 620 85 241 618 241 85 620 85 84 621 84 243 622 243 242 623 242 244 624 244 243 622 243 244 624 244 245 622 245 243 625 243 245 626 245 246 627 246 243 625 243 246 627 246 85 628 85 246 629 246 245 630 245 247 631 247 246 629 246 247 631 247 248 630 248 246 632 246 248 633 248 249 634 249 246 632 246 249 634 249 250 635 250 246 636 246 250 637 250 35 638 35 246 636 246 35 638 35 85 639 85 250 640 250 249 641 249 251 642 251 250 640 250 251 642 251 252 643 252 250 644 250 252 645 252 32 646 32 250 644 250 32 646 32 35 647 35 252 648 252 251 649 251 253 650 253 252 648 252 253 650 253 254 651 254 252 652 252 254 653 254 33 654 33 252 652 252 33 654 33 32 655 32 254 656 254 253 657 253 255 658 255 254 656 254 255 658 255 256 659 256 254 660 254 256 661 256 97 662 97 254 660 254 97 662 97 33 662 33 256 663 256 255 664 255 257 663 257 256 663 256 257 663 257 258 665 258 256 666 256 258 667 258 98 668 98 256 666 256 98 668 98 97 666 97 258 669 258 257 670 257 259 671 259 258 669 258 259 671 259 260 671 260 258 672 258 260 673 260 261 674 261 258 672 258 261 674 261 98 675 98 261 676 261 260 677 260 262 678 262 261 676 261 262 678 262 263 679 263 261 680 261 263 681 263 227 682 227 261 680 261 227 682 227 226 683 226 261 684 261 226 685 226 99 686 99 261 684 261 99 686 99 98 687 98 263 688 263 262 689 262 264 690 264 263 688 263 264 690 264 265 689 265 263 691 263 265 692 265 228 691 228 263 691 263 228 691 228 227 693 227 265 694 265 264 694 264 266 695 266 265 694 265 266 695 266 267 696 267 265 697 265 267 698 267 230 699 230 265 697 265 230 699 230 228 700 228 267 701 267 266 702 266 244 701 244 267 701 267 244 701 244 242 703 242 267 704 267 242 705 242 240 704 240 267 704 267 240 704 240 230 704 230 266 706 266 264 707 264 268 708 268 266 706 266 268 708 268 269 709 269 266 710 266 269 711 269 270 712 270 266 710 266 270 712 270 244 713 244 270 714 270 269 715 269 271 716 271 270 714 270 271 716 271 272 717 272 270 718 270 272 719 272 273 718 273 270 718 270 273 718 273 247 718 247 270 720 270 247 721 247 245 722 245 270 720 270 245 722 245 244 723 244 273 724 273 272 725 272 274 726 274 273 724 273 274 726 274 275 725 275 273 727 273 275 728 275 276 729 276 273 727 273 276 729 276 277 730 277 273 731 273 277 732 277 248 733 248 273 731 273 248 733 248 247 734 247 277 735 277 276 736 276 278 737 278 277 735 277 278 737 278 279 738 279 277 739 277 279 740 279 249 741 249 277 739 277 249 741 249 248 742 248 279 743 279 278 744 278 280 745 280 279 743 279 280 745 280 281 746 281 279 747 279 281 748 281 251 749 251 279 747 279 251 749 251 249 749 249 281 750 281 280 750 280 282 751 282 281 750 281 282 751 282 283 750 283 281 752 281 283 753 283 253 754 253 281 752 281 253 754 253 251 755 251 283 756 283 282 757 282 284 758 284 283 756 283 284 758 284 285 759 285 283 760 283 285 761 285 255 761 255 283 760 283 255 761 255 253 762 253 285 763 285 284 764 284 286 763 286 285 763 285 286 763 286 287 764 287 285 765 285 287 766 287 257 765 257 285 765 285 257 765 257 255 767 255 287 768 287 286 769 286 288 768 288 287 768 287 288 768 288 289 768 289 287 770 287 289 771 289 259 772 259 287 770 287 259 772 259 257 773 257 289 774 289 288 775 288 290 776 290 289 774 289 290 776 290 291 777 291 289 778 289 291 779 291 292 780 292 289 778 289 292 780 292 259 781 259 292 782 292 291 783 291 293 784 293 292 782 292 293 784 293 268 785 268 292 786 292 268 787 268 264 788 264 292 786 292 264 788 264 262 789 262 292 790 292 262 791 262 260 792 260 292 790 292 260 792 260 259 790 259 293 793 293 291 794 291 290 795 290 293 793 293 290 795 290 294 796 294 293 797 293 294 797 294 295 798 295 293 797 293 295 798 295 271 799 271 293 800 293 271 801 271 269 802 269 293 800 293 269 802 269 268 803 268 295 804 295 294 805 294 296 806 296 295 804 295 296 806 296 297 805 297 295 807 295 297 808 297 298 809 298 295 807 295 298 809 298 274 810 274 295 811 295 274 812 274 272 813 272 295 811 295 272 813 272 271 814 271 298 815 298 297 816 297 61 817 61 298 815 298 61 817 61 60 818 60 298 819 298 60 819 60 64 820 64 298 819 298 64 820 64 299 820 299 298 821 298 299 822 299 275 823 275 298 821 298 275 823 275 274 824 274 299 825 299 64 826 64 300 827 300 299 825 299 300 827 300 301 828 301 299 829 299 301 830 301 276 831 276 299 829 299 276 831 276 275 832 275 301 833 301 300 834 300 302 835 302 301 833 301 302 835 302 303 834 303 301 836 301 303 837 303 278 838 278 301 836 301 278 838 278 276 839 276 303 840 303 302 841 302 304 840 304 303 840 303 304 840 304 305 842 305 303 843 303 305 844 305 280 845 280 303 843 303 280 845 280 278 845 278 305 846 305 304 847 304 49 848 49 305 846 305 49 848 49 306 849 306 305 850 305 306 851 306 282 852 282 305 850 305 282 852 282 280 853 280 306 854 306 49 855 49 48 856 48 306 854 306 48 856 48 307 857 307 306 858 306 307 859 307 284 859 284 306 858 306 284 859 284 282 860 282 307 861 307 48 862 48 47 863 47 307 861 307 47 863 47 308 864 308 307 865 307 308 866 308 286 867 286 307 865 307 286 867 286 284 865 284 308 868 308 47 868 47 309 869 309 308 868 308 309 869 309 310 870 310 308 871 308 310 871 310 288 871 288 308 871 308 288 871 288 286 872 286 310 873 310 309 874 309 311 875 311 310 873 310 311 875 311 312 876 312 310 877 310 312 878 312 290 879 290 310 877 310 290 879 290 288 880 288 312 881 312 311 882 311 313 883 313 312 881 312 313 883 313 296 884 296 312 885 312 296 885 296 294 886 294 312 885 312 294 886 294 290 887 290 313 888 313 311 889 311 314 890 314 313 888 313 314 890 314 315 891 315 313 892 313 315 893 315 62 894 62 313 892 313 62 894 62 61 894 61 313 895 313 61 896 61 297 897 297 313 895 313 297 897 297 296 898 296 315 899 315 314 900 314 316 901 316 315 899 315 316 901 316 317 902 317 315 903 315 317 904 317 65 905 65 315 903 315 65 905 65 62 906 62 317 907 317 316 908 316 318 909 318 317 907 317 318 909 318 319 910 319 317 911 317 319 912 319 320 912 320 317 911 317 320 912 320 65 912 65 320 913 320 319 914 319 321 915 321 320 913 320 321 915 321 322 915 322 320 916 320 322 917 322 323 918 323 320 916 320 323 918 323 324 919 324 320 920 320 324 921 324 63 922 63 320 920 320 63 922 63 65 923 65 324 924 324 323 925 323 302 926 302 324 924 324 302 926 302 300 927 300 324 928 324 300 928 300 64 929 64 324 928 324 64 929 64 63 930 63 323 931 323 322 932 322 325 931 325 323 931 323 325 931 325 326 933 326 323 934 323 326 935 326 304 936 304 323 934 323 304 936 304 302 937 302 326 938 326 325 939 325 51 940 51 326 938 326 51 940 51 50 938 50 326 941 326 50 942 50 49 943 49 326 941 326 49 943 49 304 944 304 325 945 325 322 946 322 321 947 321 325 945 325 321 947 321 327 948 327 325 949 325 327 950 327 328 951 328 325 949 325 328 951 328 51 952 51 328 953 328 327 954 327 318 955 318 328 953 328 318 955 318 316 956 316 328 957 328 316 958 316 314 959 314 328 957 328 314 959 314 329 960 329 328 961 328 329 962 329 46 963 46 328 961 328 46 963 46 51 964 51 329 965 329 314 966 314 311 967 311 329 965 329 311 967 311 309 968 309 329 969 329 309 970 309 47 971 47 329 969 329 47 971 47 46 972 46 240 973 240 233 974 233 231 975 231 240 973 240 231 975 231 230 976 230 226 977 226 224 978 224 223 979 223 226 977 226 223 979 223 99 977 99 223 980 223 330 981 330 96 982 96 223 980 223 96 982 96 99 982 99 223 983 223 221 984 221 331 985 331 223 983 223 331 985 331 330 986 330 331 987 331 332 988 332 333 989 333 331 987 331 333 989 333 330 990 330 331 991 331 221 992 221 218 993 218 331 991 331 218 993 218 217 994 217 331 995 331 217 996 217 216 995 216 331 995 331 216 995 216 332 997 332 333 998 333 334 999 334 335 1000 335 333 998 333 335 1000 335 100 998 100 333 1001 333 100 1002 100 96 1002 96 333 1001 333 96 1002 96 330 1003 330 333 1004 333 332 1005 332 336 1006 336 333 1004 333 336 1006 336 334 1007 334 336 1008 336 337 1009 337 338 1008 338 336 1008 336 338 1008 338 334 1010 334 336 1011 336 332 1012 332 216 1013 216 336 1011 336 216 1013 216 339 1013 339 336 1014 336 339 1015 339 340 1016 340 336 1014 336 340 1016 340 337 1017 337 340 1018 340 341 1019 341 342 1020 342 340 1018 340 342 1020 342 337 1021 337 340 1022 340 339 1023 339 213 1022 213 340 1022 340 213 1022 213 343 1024 343 340 1025 340 343 1026 343 344 1027 344 340 1025 340 344 1027 344 341 1028 341 344 1029 344 345 1030 345 346 1031 346 344 1029 344 346 1031 346 341 1032 341 344 1033 344 343 1034 343 208 1035 208 344 1033 344 208 1035 208 207 1033 207 344 1036 344 207 1037 207 206 1038 206 344 1036 344 206 1038 206 345 1037 345 346 1039 346 347 1040 347 348 1041 348 346 1039 346 348 1041 348 349 1042 349 346 1043 346 349 1043 349 342 1044 342 346 1043 346 342 1044 342 341 1043 341 346 1045 346 345 1045 345 350 1045 350 346 1045 346 350 1045 350 347 1046 347 350 1047 350 351 1048 351 352 1049 352 350 1047 350 352 1049 352 347 1049 347 350 1050 350 345 1051 345 206 1052 206 350 1050 350 206 1052 206 353 1053 353 350 1054 350 353 1055 353 354 1056 354 350 1054 350 354 1056 354 351 1055 351 354 1057 354 355 1058 355 356 1059 356 354 1057 354 356 1059 356 351 1058 351 354 1060 354 353 1061 353 203 1062 203 354 1060 354 203 1062 203 357 1063 357 354 1064 354 357 1065 357 358 1066 358 354 1064 354 358 1066 358 355 1064 355 358 1067 358 114 1068 114 359 1069 359 358 1067 358 359 1069 359 355 1070 355 358 1071 358 357 1072 357 197 1073 197 358 1071 358 197 1073 197 196 1074 196 358 1075 358 196 1076 196 112 1077 112 358 1075 358 112 1077 112 114 1077 114 359 1078 359 360 1079 360 361 1080 361 359 1078 359 361 1080 361 362 1081 362 359 1082 359 362 1083 362 356 1083 356 359 1082 359 356 1083 356 355 1084 355 359 1085 359 114 1086 114 111 1087 111 359 1085 359 111 1087 111 360 1088 360 362 1089 362 361 1090 361 363 1091 363 362 1089 362 363 1091 363 364 1090 364 362 1092 362 364 1092 364 365 1093 365 362 1092 362 365 1093 365 356 1094 356 365 1095 365 364 1096 364 366 1097 366 365 1095 365 366 1097 366 367 1098 367 365 1099 365 367 1100 367 368 1101 368 365 1099 365 368 1101 368 352 1101 352 365 1102 365 352 1103 352 351 1103 351 365 1102 365 351 1103 351 356 1104 356 368 1105 368 367 1106 367 369 1107 369 368 1105 368 369 1107 369 370 1108 370 368 1109 368 370 1109 370 371 1110 371 368 1109 368 371 1110 371 348 1109 348 368 1111 368 348 1112 348 347 1112 347 368 1111 368 347 1112 347 352 1113 352 371 1114 371 370 1115 370 372 1114 372 371 1114 371 372 1114 372 373 1116 373 371 1117 371 373 1118 373 374 1118 374 371 1117 371 374 1118 374 375 1119 375 371 1120 371 375 1121 375 349 1121 349 371 1120 371 349 1121 349 348 1122 348 375 1123 375 374 1124 374 376 1125 376 375 1123 375 376 1125 376 377 1126 377 375 1127 375 377 1128 377 342 1129 342 375 1127 375 342 1129 342 349 1130 349 377 1131 377 376 1132 376 378 1131 378 377 1131 377 378 1131 378 338 1133 338 377 1134 377 338 1135 338 337 1136 337 377 1134 377 337 1136 337 342 1137 342 378 1138 378 376 1139 376 379 1140 379 378 1138 378 379 1140 379 380 1141 380 378 1142 378 380 1143 380 381 1144 381 378 1142 378 381 1144 381 335 1144 335 378 1145 378 335 1146 335 334 1147 334 378 1145 378 334 1147 334 338 1148 338 381 1149 381 380 1150 380 22 1151 22 381 1149 381 22 1151 22 21 1152 21 381 1153 381 21 1154 21 25 1155 25 381 1153 381 25 1155 25 31 1156 31 381 1157 381 31 1158 31 100 1159 100 381 1157 381 100 1159 100 335 1157 335 380 1160 380 379 1161 379 382 1161 382 380 1160 380 382 1161 382 22 1161 22 382 1162 382 383 1163 383 384 1164 384 382 1162 382 384 1164 384 385 1165 385 382 1166 382 385 1167 385 23 1168 23 382 1166 382 23 1168 23 22 1169 22 382 1170 382 379 1171 379 386 1172 386 382 1170 382 386 1172 386 383 1172 383 386 1173 386 387 1173 387 388 1174 388 386 1173 386 388 1174 388 383 1175 383 386 1176 386 379 1177 379 376 1178 376 386 1176 386 376 1178 376 374 1179 374 386 1180 386 374 1181 374 373 1181 373 386 1180 386 373 1181 373 387 1182 387 388 1183 388 389 1184 389 390 1185 390 388 1183 388 390 1185 390 391 1186 391 388 1187 388 391 1188 391 384 1189 384 388 1187 388 384 1189 384 383 1190 383 388 1191 388 387 1192 387 392 1193 392 388 1191 388 392 1193 392 389 1194 389 392 1195 392 393 1196 393 394 1197 394 392 1195 392 394 1197 394 389 1198 389 392 1199 392 387 1200 387 373 1201 373 392 1199 392 373 1201 373 372 1200 372 392 1202 392 372 1203 372 395 1204 395 392 1202 392 395 1204 395 393 1205 393 395 1206 395 396 1207 396 397 1207 397 395 1206 395 397 1207 397 393 1208 393 395 1209 395 372 1210 372 370 1211 370 395 1209 395 370 1211 370 369 1211 369 395 1212 395 369 1213 369 398 1214 398 395 1212 395 398 1214 398 396 1215 396 398 1216 398 81 1217 81 36 1217 36 398 1216 398 36 1217 36 396 1218 396 398 1219 398 369 1220 369 367 1221 367 398 1219 398 367 1221 367 366 1222 366 398 1223 398 366 1223 366 399 1224 399 398 1223 398 399 1224 399 81 1225 81 399 1226 399 75 1227 75 82 1228 82 399 1226 399 82 1228 82 81 1229 81 399 1230 399 366 1231 366 364 1232 364 399 1230 399 364 1232 364 363 1233 363 399 1234 399 363 1235 363 76 1234 76 399 1234 399 76 1234 76 75 1236 75 397 1237 397 29 1238 29 24 1239 24 397 1237 397 24 1239 24 27 1240 27 397 1241 397 27 1241 27 394 1242 394 397 1241 397 394 1242 394 393 1243 393 397 1244 397 396 1245 396 36 1246 36 397 1244 397 36 1246 36 29 1247 29 394 1248 394 27 1249 27 26 1249 26 394 1248 394 26 1249 26 400 1250 400 394 1251 394 400 1252 400 390 1253 390 394 1251 394 390 1253 390 389 1254 389 400 1255 400 26 1256 26 41 1257 41 400 1255 400 41 1257 41 44 1258 44 400 1259 400 44 1260 44 43 1261 43 400 1259 400 43 1261 43 390 1261 390 391 1262 391 390 1263 390 43 1264 43 391 1262 391 43 1264 43 14 1265 14 391 1266 391 14 1267 14 13 1266 13 391 1266 391 13 1266 13 384 1268 384 385 1269 385 384 1270 384 13 1271 13 385 1269 385 13 1271 13 15 1272 15 385 1273 385 15 1274 15 39 1275 39 385 1273 385 39 1275 39 23 1276 23 363 1277 363 361 1278 361 80 1279 80 363 1277 363 80 1279 80 76 1280 76 361 1281 361 360 1282 360 401 1283 401 361 1281 361 401 1283 401 80 1284 80 401 1285 401 402 1285 402 77 1286 77 401 1285 401 77 1286 77 80 1287 80 401 1288 401 360 1289 360 111 1290 111 401 1288 401 111 1290 111 110 1291 110 401 1292 401 110 1293 110 192 1294 192 401 1292 401 192 1294 192 402 1295 402 402 1296 402 189 1297 189 78 1298 78 402 1296 402 78 1298 78 77 1299 77 402 1300 402 192 1300 192 190 1301 190 402 1300 402 190 1301 190 189 1300 189 357 1302 357 203 1303 203 199 1304 199 357 1302 357 199 1304 199 197 1305 197 353 1306 353 206 1307 206 204 1308 204 353 1306 353 204 1308 204 203 1306 203 343 1309 343 213 1310 213 210 1311 210 343 1309 343 210 1311 210 208 1312 208 339 1313 339 216 1314 216 214 1313 214 339 1313 339 214 1313 214 213 1314 213 193 1315 193 192 1316 192 110 1317 110 193 1315 193 110 1317 110 109 1318 109 189 1319 189 187 1320 187 186 1321 186 189 1319 189 186 1321 186 78 1322 78 186 1323 186 184 1324 184 103 1325 103 186 1323 186 103 1325 103 102 1326 102 186 1327 186 102 1328 102 79 1329 79 186 1327 186 79 1329 79 78 1327 78 184 1330 184 182 1331 182 403 1332 403 184 1330 184 403 1332 403 103 1333 103 403 1334 403 88 1335 88 87 1334 87 403 1334 403 87 1334 87 404 1336 404 403 1337 403 404 1338 404 104 1339 104 403 1337 403 104 1339 104 103 1340 103 403 1341 403 182 1342 182 180 1343 180 403 1341 403 180 1343 180 88 1344 88 404 1345 404 87 1346 87 91 1347 91 404 1345 404 91 1347 91 405 1348 405 404 1349 404 405 1350 405 106 1351 106 404 1349 404 106 1351 106 104 1349 104 405 1352 405 91 1353 91 406 1352 406 405 1352 405 406 1352 406 407 1354 407 405 1355 405 407 1356 407 408 1357 408 405 1355 405 408 1357 408 106 1358 106 408 1359 408 407 1360 407 409 1361 409 408 1359 408 409 1361 409 18 1362 18 408 1363 408 18 1363 18 17 1364 17 408 1363 408 17 1364 17 410 1365 410 408 1366 408 410 1367 410 107 1368 107 408 1366 408 107 1368 107 106 1368 106 410 1369 410 17 1369 17 19 1369 19 410 1369 410 19 1369 19 411 1370 411 410 1371 410 411 1372 411 94 1373 94 410 1371 410 94 1373 94 107 1371 107 411 1374 411 19 1374 19 412 1375 412 411 1374 411 412 1375 412 413 1375 413 411 1376 411 413 1377 413 90 1378 90 411 1376 411 90 1378 90 94 1379 94 413 1380 413 412 1381 412 414 1382 414 413 1380 413 414 1382 414 406 1383 406 413 1384 413 406 1385 406 91 1386 91 413 1384 413 91 1386 91 90 1385 90 414 1387 414 412 1388 412 16 1389 16 414 1387 414 16 1389 16 415 1390 415 414 1391 414 415 1392 415 11 1393 11 414 1391 414 11 1393 11 409 1392 409 414 1394 414 409 1395 409 407 1396 407 414 1394 414 407 1396 407 406 1397 406 412 1398 412 19 1399 19 8 1400 8 412 1398 412 8 1400 8 16 1401 16 409 1402 409 11 1403 11 10 1404 10 409 1402 409 10 1404 10 18 1405 18 180 1406 180 178 1407 178 89 1408 89 180 1406 180 89 1408 89 88 1407 88 178 1409 178 69 1410 69 68 1410 68 178 1409 178 68 1410 68 89 1411 89 165 1412 165 163 1413 163 56 1414 56 165 1412 165 56 1414 56 58 1415 58 163 1416 163 161 1417 161 57 1418 57 163 1416 163 57 1418 57 56 1419 56 83 1420 83 82 1421 82 75 1421 75 83 1420 83 75 1421 75 74 1422 74 43 1423 43 6 1424 6 5 1424 5 43 1423 43 5 1424 5 14 1424 14 41 1425 41 26 1426 26 20 1425 20 41 1425 41 20 1425 20 38 1425 38 39 1427 39 15 1428 15 3 1429 3 39 1427 39 3 1429 3 2 1430 2 39 1431 39 38 1432 38 20 1433 20 39 1431 39 20 1433 20 23 1434 23 321 1435 321 319 1436 319 318 1437 318 321 1435 321 318 1437 318 327 1438 327 12 1439 12 11 1440 11 415 1441 415 12 1439 12 415 1441 415 16 1441 16</p>
        </triangles>
      </mesh>
    </geometry>
  </library_geometries>
  <library_visual_scenes>
    <visual_scene id="DefaultScene">
      <node id="node_61743680_b7c6_4fbd_b085_0607ac46a42f" type="NODE">
        <matrix>1 0 0 0 0 1 0 0 0 0 1 0 0 0 0 1</matrix>
        <node id="node_2c0e3ba1_7746_4785_86a6_586e193b78a6" type="NODE">
          <matrix>1 0 0 0 0 1 0 0 0 0 1 0 0 0 0 1</matrix>
          <node id="node_b92802e0_d83d_4635_9bb0_d2db9b28f6ac" type="NODE">
            <matrix>1 0 0 0 0 2.220446049250313E-16 1 0 0 -1 2.220446049250313E-16 0 0 0 0 1</matrix>
            <node id="node_7ac6bc6b_2473_4979_8e8c_ac11f9e20f13" type="NODE">
              <matrix>1 0 0 0 0 0 -1 0 0 1 0 0 0 0 0 1</matrix>
              <node id="node_44a78d7c_56f6_4c7f_a046_ccf98ef5bfdd" type="NODE">
                <matrix>1 0 0 0 0 1 0 0 0 0 1 0 0 0 0 1</matrix>
                <node id="node_f83180e5_0238_4ae6_9d6c_7b510b87df0c" type="NODE">
                  <matrix>1 0 0 0 0 1 0 0 0 0 1 0 0 0 0 1</matrix>
                  <node id="node_e60d15f0_62ed_4005_9d31_7ee2f33afdf6" type="NODE">
                    <matrix>0.26861435174942017 0 0 2.8136708736419678 0 0.26861435174942017 0 0.39029619097709656 0 0 0.26861435174942017 1.702970266342163 0 0 0 1</matrix>
                    <node id="node_cd362edf_139f_4391_aac9_7b6ec8b5b8fc" type="NODE">
                      <matrix>1 0 0 0 0 1 0 0 0 0 1 0 0 0 0 1</matrix>
                      <node id="node_cd362edf_139f_4391_aac9_7b6ec8b5b8fc_mesh0" type="NODE">
                        <matrix>1 0 0 0 0 1 0 0 0 0 1 0 0 0 0 1</matrix>
                        <instance_geometry url="#geometry_3e6fa17a_b312_4e39_99fc_b533cb39f25c">
                          <bind_material>
                            <technique_common>
                              <instance_material symbol="mat_0" target="#mat_0">
                                <bind_vertex_input semantic="UVMap" input_semantic="TEXCOORD" input_set="0"/>
                              </instance_material>
                            </technique_common>
                          </bind_material>
                        </instance_geometry>
                      </node>
                    </node>
                  </node>
                </node>
              </node>
            </node>
          </node>
        </node>
      </node>
    </visual_scene>
  </library_visual_scenes>
  <scene>
    <instance_visual_scene url="#DefaultScene"/>
  </scene>
</COLLADA>
