# Blender 4.2.1 LTS
# www.blender.org
mtllib stylized_crystal_SM.mtl
o crystal1_low
v -0.000000 0.592813 0.000000
v -0.046078 0.374436 0.046078
v -0.000000 0.355992 0.064073
v -0.046078 0.374436 -0.046078
v -0.064073 0.355992 0.000000
v 0.064073 0.355992 0.000000
v 0.046078 0.374436 -0.046078
v 0.046078 0.374436 0.046078
v -0.000000 0.355992 -0.064073
v 0.030655 0.005594 -0.030655
v 0.043353 0.005594 0.000000
v -0.000000 0.005594 -0.043353
v 0.030655 0.005594 0.030655
v -0.030655 0.005594 0.030655
v -0.030655 0.005594 -0.030655
v -0.000000 0.005594 0.043353
v -0.043353 0.005594 0.000000
vn -0.2629 0.2520 0.9313
vn -0.9313 0.2520 -0.2629
vn 0.9313 0.2520 -0.2629
vn 0.2629 0.2520 0.9313
vn -0.9313 0.2520 0.2629
vn -0.2629 0.2520 -0.9313
vn 0.2629 0.2520 -0.9313
vn 0.9313 0.2520 0.2629
vn -0.3821 -0.0546 -0.9225
vn 0.3821 -0.0546 -0.9225
vn 0.3821 -0.0546 0.9225
vn 0.9225 -0.0546 -0.3821
vn -0.3821 -0.0546 0.9225
vn -0.9225 -0.0546 0.3821
vn 0.9225 -0.0546 0.3821
vn -0.9225 -0.0546 -0.3821
vt 0.267791 0.471766
vt 0.551754 0.471766
vt 0.293839 0.527043
vt 0.488115 0.285585
vt 0.488115 0.001623
vt 0.543392 0.259538
vt 0.306870 0.529614
vt 0.564785 0.584891
vt 0.280823 0.584891
vt 0.527409 0.435099
vt 0.582685 0.177183
vt 0.582685 0.461146
vt 0.028864 0.470074
vt 0.286779 0.525351
vt 0.002817 0.525351
vt 0.259589 0.585316
vt 0.001674 0.530039
vt 0.285636 0.530039
vt 0.554014 0.002765
vt 0.554014 0.286728
vt 0.498737 0.028813
vt 0.125831 0.435799
vt 0.409794 0.435799
vt 0.151879 0.491075
vt 0.058284 0.002332
vt 0.001538 0.407326
vt 0.019888 0.001465
vt 0.304313 0.430192
vt 0.247567 0.025198
vt 0.304313 0.002530
vt 0.242806 0.002332
vt 0.186060 0.407326
vt 0.204410 0.001465
vt 0.365820 0.002332
vt 0.309074 0.407326
vt 0.327425 0.001465
vt 0.119791 0.430192
vt 0.063045 0.025198
vt 0.119791 0.002530
vt 0.427328 0.002332
vt 0.370582 0.407326
vt 0.388932 0.001465
vt 0.432016 0.002332
vt 0.488762 0.407326
vt 0.432016 0.429994
vt 0.124479 0.002332
vt 0.181226 0.407326
vt 0.124479 0.429994
vt 0.058284 0.429994
vt 0.265918 0.431059
vt 0.242806 0.429994
vt 0.365820 0.429994
vt 0.081396 0.431059
vt 0.427328 0.429994
vt 0.470411 0.001465
vt 0.162875 0.001465
s 1
usemtl crystal_m
f 3/1/1 1/2/1 2/3/1
f 5/4/2 1/5/2 4/6/2
f 7/7/3 1/8/3 6/9/3
f 8/10/4 1/11/4 3/12/4
f 2/13/5 1/14/5 5/15/5
f 4/16/6 1/17/6 9/18/6
f 9/19/7 1/20/7 7/21/7
f 6/22/8 1/23/8 8/24/8
f 15/25/9 9/26/9 12/27/9
f 10/28/10 9/29/10 7/30/10
f 13/31/11 3/32/11 16/33/11
f 10/34/12 6/35/12 11/36/12
f 14/37/13 3/38/13 2/39/13
f 14/40/14 5/41/14 17/42/14
f 13/43/15 6/44/15 8/45/15
f 15/46/16 5/47/16 4/48/16
f 15/25/9 4/49/9 9/26/9
f 10/28/10 12/50/10 9/29/10
f 13/31/11 8/51/11 3/32/11
f 10/34/12 7/52/12 6/35/12
f 14/37/13 16/53/13 3/38/13
f 14/40/14 2/54/14 5/41/14
f 13/43/15 11/55/15 6/44/15
f 15/46/16 17/56/16 5/47/16
o crystal2_low
v 0.042906 0.006176 -0.030650
v 0.030350 0.008052 0.000000
v 0.046165 0.143167 -0.047666
v 0.073809 0.005594 -0.044076
v 0.042906 0.006176 0.030650
v 0.073809 0.005594 0.044076
v 0.105903 0.005594 0.031742
v 0.092068 0.127822 0.066733
v 0.111159 0.255617 0.064073
v 0.046165 0.143167 0.047666
v 0.140452 0.129082 0.047666
v 0.158728 0.262172 0.046078
v 0.158069 0.117963 -0.000000
v 0.174529 0.246150 -0.000000
v 0.119629 0.005594 0.000000
v 0.140452 0.129082 -0.047666
v 0.158728 0.262172 -0.046078
v 0.092068 0.127822 -0.066733
v 0.105903 0.005594 -0.031742
v 0.111159 0.255617 -0.064073
v 0.136792 0.427198 0.000000
v 0.067584 0.275788 -0.046078
v 0.047789 0.265084 0.000000
v 0.067584 0.275788 0.046078
v 0.026068 0.137682 0.000000
vn -0.9209 -0.0273 -0.3890
vn -0.9243 -0.0297 -0.3805
vn -0.9256 -0.0306 -0.3773
vn -0.4011 -0.1077 -0.9097
vn -0.4088 -0.1038 -0.9067
vn -0.3978 -0.1094 -0.9109
vn -0.4011 -0.1077 0.9097
vn -0.4088 -0.1038 0.9067
vn -0.4107 -0.1028 0.9060
vn 0.3528 -0.2204 0.9094
vn 0.3606 -0.2187 0.9067
vn 0.3499 -0.2210 0.9104
vn -0.3554 0.0694 0.9321
vn -0.3598 0.0722 0.9302
vn -0.3615 0.0734 0.9295
vn 0.3652 -0.0361 0.9302
vn 0.3601 -0.0375 0.9321
vn 0.3672 -0.0355 0.9295
vn 0.9243 -0.1218 0.3617
vn 0.9227 -0.1194 0.3665
vn 0.9221 -0.1184 0.3684
vn 0.8748 -0.2982 0.3819
vn 0.8727 -0.2952 0.3890
vn 0.8721 -0.2944 0.3910
vn 0.9227 -0.1194 -0.3665
vn 0.9243 -0.1218 -0.3617
vn 0.9221 -0.1184 -0.3684
vn 0.8748 -0.2982 -0.3819
vn 0.8727 -0.2952 -0.3890
vn 0.8757 -0.2996 -0.3787
vn 0.3601 -0.0375 -0.9321
vn 0.3652 -0.0361 -0.9302
vn 0.3672 -0.0355 -0.9295
vn 0.3528 -0.2204 -0.9094
vn 0.3606 -0.2187 -0.9067
vn 0.3627 -0.2183 -0.9060
vn -0.3598 0.0722 -0.9302
vn -0.3554 0.0694 -0.9321
vn -0.3615 0.0734 -0.9295
vn 0.3026 0.2934 -0.9068
vn -0.2037 0.3691 -0.9068
vn -0.9195 0.1537 -0.3617
vn -0.9173 0.1555 -0.3665
vn -0.9164 0.1562 -0.3684
vn -0.8474 0.4652 -0.2559
vn -0.9173 0.1555 0.3665
vn -0.9195 0.1537 0.3617
vn -0.9164 0.1562 0.3684
vn -0.8474 0.4652 0.2559
vn -0.9243 -0.0297 0.3805
vn -0.9209 -0.0273 0.3890
vn -0.9256 -0.0306 0.3773
vn -0.2037 0.3691 0.9068
vn 0.9464 0.1973 0.2559
vn 0.9464 0.1973 -0.2559
vn 0.3026 0.2934 0.9068
vn -0.9200 -0.0267 -0.3910
vn -0.4107 -0.1028 -0.9060
vn -0.3978 -0.1094 0.9109
vn 0.3627 -0.2183 0.9060
vn -0.3536 0.0683 0.9329
vn 0.3582 -0.0381 0.9329
vn 0.9249 -0.1227 0.3598
vn 0.8757 -0.2996 0.3787
vn 0.9249 -0.1227 -0.3598
vn 0.8721 -0.2944 -0.3910
vn 0.3582 -0.0381 -0.9329
vn 0.3499 -0.2210 -0.9104
vn -0.3536 0.0683 -0.9329
vn -0.9204 0.1530 -0.3598
vn -0.9204 0.1530 0.3599
vn -0.9200 -0.0267 0.3910
vt 0.828970 0.817124
vt 0.770326 0.670948
vt 0.808639 0.668385
vt 0.782262 0.161844
vt 0.840906 0.015668
vt 0.821211 0.159755
vt 0.326218 0.791961
vt 0.180041 0.850605
vt 0.166395 0.791961
vt 0.475360 0.845738
vt 0.339447 0.787095
vt 0.483535 0.806790
vt 0.596000 0.748839
vt 0.735421 0.689493
vt 0.745589 0.748839
vt 0.735604 0.326400
vt 0.794949 0.186978
vt 0.794949 0.336567
vt 0.718200 0.018830
vt 0.777546 0.158251
vt 0.718200 0.168419
vt 0.469131 0.850426
vt 0.333218 0.909070
vt 0.319572 0.850426
vt 0.797640 0.342063
vt 0.738294 0.481484
vt 0.738294 0.331896
vt 0.894395 0.347116
vt 0.835752 0.483028
vt 0.854369 0.346834
vt 0.177282 0.787273
vt 0.316704 0.727928
vt 0.326871 0.787273
vt 0.796390 0.503308
vt 0.855033 0.639221
vt 0.796390 0.652867
vt 0.731260 0.654138
vt 0.790605 0.514717
vt 0.790605 0.664305
vt 0.264728 0.589579
vt 0.478785 0.589579
vt 0.286615 0.644749
vt 0.562317 0.616719
vt 0.617487 0.424548
vt 0.617487 0.638605
vt 0.151490 0.712860
vt 0.012068 0.772205
vt 0.001901 0.712860
vt 0.246190 0.639132
vt 0.032133 0.639132
vt 0.224303 0.583961
vt 0.574699 0.790086
vt 0.435277 0.730741
vt 0.584866 0.730741
vt 0.613873 0.024408
vt 0.558702 0.216578
vt 0.558702 0.002521
vt 0.004168 0.776922
vt 0.150344 0.835565
vt 0.001606 0.815234
vt 0.580666 0.529942
vt 0.366609 0.529942
vt 0.558780 0.474771
vt 0.002572 0.581287
vt 0.216630 0.581287
vt 0.024459 0.636457
vt 0.677806 0.270052
vt 0.622636 0.462222
vt 0.622636 0.248165
vt 0.643055 0.156928
vt 0.587885 0.349098
vt 0.587885 0.135041
vt 0.770326 0.830770
vt 0.782262 0.002022
vt 0.324129 0.830910
vt 0.325801 0.845738
vt 0.579934 0.691701
vt 0.737812 0.170913
vt 0.775338 0.002764
vt 0.469412 0.890453
vt 0.795432 0.497549
vt 0.894395 0.496675
vt 0.161217 0.730136
vt 0.835338 0.495134
vt 0.733468 0.498651
vt 0.167555 0.769997
vt 0.419212 0.787878
vt 0.163991 0.776922
s 1
usemtl crystal_m
f 42/57/17 18/58/18 19/59/19
f 18/60/20 35/61/21 21/62/22
f 22/63/23 25/64/24 27/65/25
f 24/66/26 25/67/27 23/68/28
f 26/69/29 27/70/30 25/71/31
f 28/72/32 26/73/33 25/74/34
f 31/75/35 28/76/36 30/77/37
f 24/78/38 30/79/39 28/80/40
f 33/81/41 31/82/42 30/83/43
f 36/84/44 30/85/45 32/86/46
f 37/87/47 33/88/48 35/89/49
f 36/90/50 35/91/51 33/92/52
f 20/93/53 37/94/54 35/95/55
f 37/96/56 38/97/56 34/98/56
f 39/99/57 38/100/57 37/101/57
f 40/102/58 20/103/59 42/104/60
f 40/105/61 38/106/61 39/107/61
f 27/108/62 40/109/63 42/110/64
f 41/111/65 38/112/65 40/113/65
f 22/114/66 42/115/67 19/116/68
f 26/117/69 38/118/69 41/119/69
f 31/120/70 38/121/70 29/122/70
f 34/123/71 38/124/71 31/125/71
f 29/126/72 38/127/72 26/128/72
f 42/57/17 20/129/73 18/58/18
f 18/60/20 20/130/74 35/61/21
f 22/63/23 23/131/75 25/64/24
f 24/66/26 28/132/76 25/67/27
f 26/69/29 41/133/77 27/70/30
f 28/72/32 29/134/78 26/73/33
f 31/75/35 29/135/79 28/76/36
f 24/78/38 32/136/80 30/79/39
f 33/81/41 34/137/81 31/82/42
f 36/84/44 33/138/82 30/85/45
f 37/87/47 34/139/83 33/88/48
f 36/90/50 21/140/84 35/91/51
f 20/93/53 39/141/85 37/94/54
f 40/102/58 39/142/86 20/103/59
f 27/108/62 41/143/87 40/109/63
f 22/114/66 27/144/88 42/115/67
o crystal3_low
v -0.026019 0.006383 0.025333
v -0.023474 0.005594 0.017000
v -0.042417 0.099037 0.015227
v -0.032318 0.005594 0.031352
v -0.049583 0.005594 0.047242
v -0.076318 0.005594 0.048081
v -0.079584 0.100477 0.048313
v -0.110114 0.192115 0.027633
v -0.113312 0.083959 0.049924
v -0.141264 0.172451 0.029574
v -0.130848 0.078938 0.016721
v -0.159670 0.171293 -0.002906
v -0.090625 0.005594 0.025087
v -0.114187 0.068881 -0.029002
v -0.142103 0.157974 -0.046206
v -0.080833 0.078938 -0.064438
v -0.082151 0.005594 -0.009259
v -0.055279 0.005594 -0.032268
v -0.028308 0.005594 -0.029824
v -0.043291 0.083959 -0.063698
v -0.017040 0.005594 -0.005565
v -0.029569 0.100477 -0.032845
v -0.061765 0.192115 -0.050821
v -0.074033 0.172451 -0.079520
v -0.073194 0.186928 -0.003740
v -0.147051 0.291262 -0.049255
v -0.111321 0.171293 -0.081361
vn 0.9436 0.1971 0.2660
vn 0.9452 0.1992 0.2586
vn 0.9448 0.1986 0.2607
vn 0.2867 -0.9416 0.1767
vn 0.6575 0.1986 0.7268
vn 0.6618 0.1971 0.7234
vn 0.6642 0.1963 0.7213
vn 0.0348 -0.0012 0.9994
vn 0.0449 -0.0009 0.9990
vn 0.0481 -0.0008 0.9988
vn -0.0571 0.2055 0.9770
vn -0.0626 0.2009 0.9776
vn -0.0549 0.2073 0.9767
vn 0.6305 0.3657 0.6847
vn 0.6280 0.3668 0.6864
vn 0.6263 0.3677 0.6875
vn -0.8573 -0.1626 0.4885
vn -0.8609 -0.1622 0.4823
vn -0.8622 -0.1620 0.4799
vn -0.7866 -0.3816 0.4854
vn -0.7912 -0.3807 0.4786
vn -0.7928 -0.3804 0.4762
vn -0.9060 -0.3350 -0.2587
vn -0.9047 -0.3367 -0.2611
vn -0.9069 -0.3338 -0.2571
vn -0.8464 -0.4912 -0.2060
vn -0.8479 -0.4896 -0.2035
vn -0.8449 -0.4927 -0.2084
vn -0.6399 -0.3367 -0.6908
vn -0.6384 -0.3350 -0.6930
vn -0.6373 -0.3338 -0.6946
vn -0.5645 -0.4912 -0.6634
vn -0.5629 -0.4896 -0.6659
vn -0.5619 -0.4886 -0.6675
vn 0.0800 -0.3816 -0.9209
vn 0.0718 -0.3807 -0.9219
vn 0.0834 -0.3819 -0.9204
vn 0.9084 -0.0012 -0.4182
vn 0.9126 -0.0009 -0.4090
vn 0.9069 -0.0014 -0.4213
vn 0.8954 0.3668 0.2524
vn 0.8950 0.3657 0.2554
vn 0.8956 0.3677 0.2504
vn 0.8451 0.2009 -0.4954
vn 0.8471 0.2055 -0.4901
vn 0.8478 0.2073 -0.4881
vn 0.5950 0.5215 -0.6116
vn 0.7363 0.6295 0.2481
vn 0.0392 0.2692 -0.9623
vn -0.9303 -0.0429 -0.3642
vn -0.8420 0.2692 0.4675
vn -0.7435 -0.0429 -0.6673
vn 0.5526 0.6295 0.5462
vn -0.2789 0.5215 0.8064
vn 0.0439 -0.1622 -0.9858
vn 0.0510 -0.1626 -0.9854
vn 0.0411 -0.1620 -0.9859
vn 0.9428 0.1962 0.2693
vn 0.9429 0.1963 0.2691
vn 0.6644 0.1962 0.7211
vn 0.6559 0.1992 0.7281
vn 0.0314 -0.0014 0.9995
vn -0.0647 0.1991 0.9778
vn 0.6321 0.3649 0.6836
vn -0.8559 -0.1628 0.4908
vn -0.7847 -0.3819 0.4882
vn -0.9038 -0.3379 -0.2627
vn -0.8489 -0.4886 -0.2019
vn -0.6409 -0.3379 -0.6892
vn -0.5660 -0.4927 -0.6610
vn 0.0690 -0.3804 -0.9222
vn 0.9139 -0.0008 -0.4060
vn 0.8948 0.3649 0.2574
vn 0.8444 0.1991 -0.4974
vn 0.0537 -0.1628 -0.9852
vt 0.474095 0.892854
vt 0.589283 0.892854
vt 0.574313 0.948494
vt 0.001465 0.021181
vt 0.001465 0.001669
vt 0.004176 0.011425
vt 0.945809 0.109548
vt 0.890169 0.009330
vt 0.916605 0.003107
vt 0.958462 0.628969
vt 0.928944 0.523120
vt 0.971974 0.529559
vt 0.837562 0.954278
vt 0.734319 0.911291
vt 0.844284 0.911291
vt 0.953419 0.803291
vt 0.896334 0.701123
vt 0.953419 0.693292
vt 0.926254 0.267870
vt 0.883296 0.166694
vt 0.926254 0.157905
vt 0.980168 0.099223
vt 0.937146 0.010385
vt 0.980168 0.001920
vt 0.954595 0.966444
vt 0.851716 0.909356
vt 0.961599 0.909356
vt 0.272415 0.997798
vt 0.328172 0.914610
vt 0.313355 0.998535
vt 0.352173 0.968162
vt 0.455052 0.911074
vt 0.462056 0.968162
vt 0.969774 0.901349
vt 0.914017 0.818161
vt 0.969774 0.804046
vt 0.219059 0.978851
vt 0.130221 0.935828
vt 0.229631 0.949343
vt 0.949196 0.339310
vt 0.978714 0.233461
vt 0.978714 0.348649
vt 0.695745 0.952346
vt 0.593577 0.895262
vt 0.703576 0.895262
vt 0.111825 0.901887
vt 0.008582 0.944874
vt 0.001860 0.901887
vt 0.587495 0.753527
vt 0.752664 0.753527
vt 0.606224 0.791897
vt 0.658492 0.795170
vt 0.799852 0.849340
vt 0.642796 0.849340
vt 0.534718 0.309696
vt 0.496664 0.454349
vt 0.496664 0.289180
vt 0.141194 0.894719
vt 0.001783 0.840521
vt 0.156204 0.840521
vt 0.479037 0.466343
vt 0.313867 0.466343
vt 0.458521 0.428289
vt 0.864399 0.641581
vt 0.864399 0.796003
vt 0.810201 0.656592
vt 0.636660 0.849696
vt 0.479604 0.849696
vt 0.620964 0.795526
vt 0.532078 0.573000
vt 0.385638 0.534630
vt 0.550807 0.534630
vt 0.881298 0.613808
vt 0.924255 0.512633
vt 0.924255 0.622597
vt 0.466469 0.929318
vt 0.467872 0.919290
vt 0.926633 0.001704
vt 0.890169 0.124518
vt 0.928944 0.638308
vt 0.723244 0.952527
vt 0.898344 0.815437
vt 0.885046 0.280943
vt 0.950661 0.109796
vt 0.840351 0.964434
vt 0.272415 0.900495
vt 0.340808 0.913084
vt 0.928834 0.902086
vt 0.121755 0.978851
vt 0.935683 0.239899
vt 0.581432 0.950336
vt 0.122900 0.943123
vt 0.883048 0.499559
s 1
usemtl crystal_m
f 63/145/89 64/146/90 45/147/91
f 46/148/92 44/149/92 43/150/92
f 45/151/93 47/152/94 46/153/95
f 48/154/96 49/155/97 51/156/98
f 49/157/99 52/158/100 51/159/101
f 67/160/102 49/161/103 45/162/104
f 52/163/105 53/164/106 51/165/107
f 55/166/108 51/167/109 53/168/110
f 53/169/111 57/170/112 56/171/113
f 55/172/114 56/173/115 59/174/116
f 57/175/117 58/176/118 56/177/119
f 60/178/120 56/179/121 58/180/122
f 60/181/123 62/182/124 61/183/125
f 61/184/126 64/185/127 63/186/128
f 64/187/129 67/188/130 45/189/131
f 66/190/132 64/191/133 62/192/134
f 66/193/135 68/194/135 65/195/135
f 65/196/136 68/197/136 67/198/136
f 69/199/137 68/200/137 66/201/137
f 54/202/138 68/203/138 57/204/138
f 52/205/139 68/206/139 54/207/139
f 57/208/140 68/209/140 69/210/140
f 67/211/141 68/212/141 50/213/141
f 50/214/142 68/215/142 52/216/142
f 58/217/143 66/218/144 62/219/145
f 43/220/146 44/221/147 45/147/91
f 44/221/147 63/145/89 45/147/91
f 46/153/95 43/222/148 45/151/93
f 45/151/93 49/223/149 47/152/94
f 48/154/96 47/224/150 49/155/97
f 49/157/99 50/225/151 52/158/100
f 67/160/102 50/226/152 49/161/103
f 52/163/105 54/227/153 53/164/106
f 55/166/108 48/228/154 51/167/109
f 53/169/111 54/229/155 57/170/112
f 55/172/114 53/230/156 56/173/115
f 57/175/117 69/231/157 58/176/118
f 60/178/120 59/232/158 56/179/121
f 60/181/123 58/233/159 62/182/124
f 61/184/126 62/234/160 64/185/127
f 64/187/129 65/235/161 67/188/130
f 66/190/132 65/236/162 64/191/133
f 58/217/143 69/237/163 66/218/144
o crystal4_low
v 0.016525 0.225564 -0.098088
v 0.079970 0.132800 -0.080624
v -0.029523 0.133139 -0.113985
v 0.062613 0.132855 -0.112107
v 0.015095 0.143024 -0.040412
v -0.048149 0.133195 -0.083236
v 0.016726 0.122972 -0.123449
v 0.061440 0.147275 -0.052392
v -0.030696 0.147559 -0.054270
v -0.016504 0.005594 -0.039277
v 0.014462 0.005594 -0.030139
v -0.029705 0.005594 -0.060580
v -0.016692 0.005594 -0.082079
v 0.015696 0.005594 -0.090677
v 0.047730 0.005594 -0.080815
v 0.059876 0.005594 -0.058802
v 0.045796 0.005594 -0.038027
vn 0.7857 0.5786 0.2190
vn 0.7810 0.4532 -0.4298
vn -0.1444 0.2372 -0.9607
vn -0.7600 0.4580 -0.4612
vn 0.1849 0.2362 -0.9540
vn -0.1873 0.5648 0.8037
vn 0.1578 0.5638 0.8107
vn -0.7904 0.5834 0.1869
vn -0.2823 0.0728 0.9566
vn -0.8497 -0.0293 0.5265
vn -0.8363 -0.2108 -0.5062
vn -0.2479 -0.2585 -0.9337
vn 0.2841 -0.2601 -0.9228
vn 0.8549 -0.2160 -0.4717
vn 0.8273 -0.0345 0.5607
vn 0.2435 0.0712 0.9673
vt 0.700613 0.873062
vt 0.832253 0.873062
vt 0.721224 0.910260
vt 0.019577 0.859154
vt 0.134363 0.897199
vt 0.002723 0.897199
vt 0.252880 0.953899
vt 0.144715 0.899828
vt 0.267034 0.899828
vt 0.874579 0.897549
vt 0.874579 0.765908
vt 0.912624 0.880694
vt 0.900642 0.403372
vt 0.900642 0.281053
vt 0.954713 0.389218
vt 0.984947 0.133338
vt 0.931049 0.236688
vt 0.931049 0.119594
vt 0.931049 0.517382
vt 0.931049 0.400288
vt 0.984947 0.503638
vt 0.906285 0.654898
vt 0.869088 0.765927
vt 0.869088 0.634287
vt 0.729262 0.348436
vt 0.674974 0.194505
vt 0.729262 0.182391
vt 0.187230 0.683909
vt 0.342326 0.725002
vt 0.191318 0.712627
vt 0.809421 0.166557
vt 0.850531 0.313017
vt 0.809421 0.319456
vt 0.885481 0.007453
vt 0.831348 0.146435
vt 0.846714 0.006215
vt 0.172432 0.895140
vt 0.311176 0.841007
vt 0.325093 0.895140
vt 0.802356 0.476916
vt 0.843466 0.330695
vt 0.831112 0.481375
vt 0.523503 0.690268
vt 0.368632 0.731361
vt 0.357682 0.690268
vt 0.679106 0.607034
vt 0.733393 0.453327
vt 0.716185 0.611910
vt 0.692183 0.353088
vt 0.353275 0.683909
vt 0.838151 0.162010
vt 0.885481 0.160352
vt 0.170956 0.856373
vt 0.802356 0.324255
vt 0.519312 0.719013
vt 0.679106 0.441213
s 1
usemtl crystal_m
f 71/238/164 70/239/164 77/240/164
f 73/241/165 70/242/165 71/243/165
f 72/244/166 70/245/166 76/246/166
f 75/247/167 70/248/167 72/249/167
f 76/250/168 70/251/168 73/252/168
f 74/253/169 70/254/169 78/255/169
f 77/256/170 70/257/170 74/258/170
f 78/259/171 70/260/171 75/261/171
f 79/262/172 74/263/172 78/264/172
f 79/265/173 75/266/173 81/267/173
f 82/268/174 75/269/174 72/270/174
f 82/271/175 76/272/175 83/273/175
f 84/274/176 76/275/176 73/276/176
f 84/277/177 71/278/177 85/279/177
f 86/280/178 71/281/178 77/282/178
f 86/283/179 74/284/179 80/285/179
f 79/262/172 80/286/172 74/263/172
f 79/265/173 78/287/173 75/266/173
f 82/268/174 81/288/174 75/269/174
f 82/271/175 72/289/175 76/272/175
f 84/274/176 83/290/176 76/275/176
f 84/277/177 73/291/177 71/278/177
f 86/280/178 85/292/178 71/281/178
f 86/283/179 77/293/179 74/284/179
o crystal5_low
v 0.003843 0.243067 0.129910
v 0.003843 0.156171 0.055784
v -0.024395 0.140519 0.121977
v -0.024395 0.160166 0.069029
v 0.043108 0.142511 0.092597
v 0.003843 0.128850 0.129410
v -0.035423 0.142511 0.092597
v 0.032080 0.160166 0.069029
v 0.032080 0.140519 0.121977
v 0.023763 0.005594 0.063038
v 0.031423 0.005594 0.041791
v 0.003843 0.005594 0.072109
v -0.016078 0.005594 0.063038
v -0.023738 0.005594 0.041791
v -0.015258 0.005594 0.021417
v 0.003843 0.005594 0.013221
v 0.022944 0.005594 0.021417
vn 0.2562 0.6273 -0.7354
vn -0.2562 0.6273 -0.7354
vn -0.9077 0.2224 0.3558
vn -0.2562 -0.0042 0.9666
vn -0.9077 0.4007 -0.1246
vn 0.9077 0.2224 0.3558
vn 0.9077 0.4007 -0.1246
vn 0.2562 -0.0042 0.9666
vn 0.9214 -0.2019 0.3322
vn 0.3816 -0.3897 0.8382
vn -0.3816 -0.3897 0.8382
vn -0.9214 -0.2019 0.3322
vn -0.9214 0.0637 -0.3835
vn -0.3816 0.2514 -0.8895
vn 0.3816 0.2514 -0.8895
vn 0.9214 0.0637 -0.3835
vn -0.9214 0.0637 -0.3834
vt 0.878478 0.166147
vt 0.878478 0.298347
vt 0.844666 0.179614
vt 0.644845 0.402825
vt 0.678657 0.284092
vt 0.678657 0.416293
vt 0.592852 0.888196
vt 0.474119 0.854384
vt 0.606319 0.854384
vt 0.835484 0.867261
vt 0.835484 0.735061
vt 0.869296 0.853794
vt 0.876580 0.499379
vt 0.876580 0.631579
vt 0.842768 0.512846
vt 0.613233 0.854384
vt 0.745433 0.854384
vt 0.626700 0.888196
vt 0.016045 0.538052
vt 0.134778 0.571864
vt 0.002578 0.571864
vt 0.591414 0.120406
vt 0.625226 0.001673
vt 0.625226 0.133874
vt 0.506977 0.685580
vt 0.666905 0.650812
vt 0.677667 0.685580
vt 0.678987 0.172938
vt 0.713755 0.013010
vt 0.704155 0.170043
vt 0.014781 0.708172
vt 0.174710 0.673403
vt 0.185471 0.708172
vt 0.354522 0.679221
vt 0.194594 0.644453
vt 0.363851 0.654799
vt 0.182318 0.668241
vt 0.002300 0.643820
vt 0.189803 0.643820
vt 0.640011 0.609041
vt 0.674779 0.432300
vt 0.663728 0.613076
vt 0.674299 0.189752
vt 0.639530 0.013010
vt 0.674299 0.002249
vt 0.573265 0.626771
vt 0.393247 0.651192
vt 0.404008 0.616424
vt 0.497648 0.661159
vt 0.678987 0.002249
vt 0.017677 0.683003
vt 0.183832 0.679221
vt 0.013061 0.678588
vt 0.640011 0.421539
vt 0.650582 0.193787
vt 0.580749 0.651192
s 1
usemtl crystal_m
f 88/294/180 87/295/180 94/296/180
f 90/297/181 87/298/181 88/299/181
f 89/300/182 87/301/182 93/302/182
f 92/303/183 87/304/183 89/305/183
f 93/306/184 87/307/184 90/308/184
f 91/309/185 87/310/185 95/311/185
f 94/312/186 87/313/186 91/314/186
f 95/315/187 87/316/187 92/317/187
f 96/318/188 91/319/188 95/320/188
f 96/321/189 92/322/189 98/323/189
f 99/324/190 92/325/190 89/326/190
f 99/327/191 93/328/191 100/329/191
f 100/330/192 90/331/192 101/332/192
f 101/333/193 88/334/193 102/335/193
f 103/336/194 88/337/194 94/338/194
f 97/339/195 94/340/195 91/341/195
f 96/318/188 97/342/188 91/319/188
f 96/321/189 95/343/189 92/322/189
f 99/324/190 98/344/190 92/325/190
f 99/327/191 89/345/191 93/328/191
f 100/330/192 93/346/196 90/331/192
f 101/333/193 90/347/193 88/334/193
f 103/336/194 102/348/194 88/337/194
f 97/339/195 103/349/195 94/340/195
